<svg xmlns="http://www.w3.org/2000/svg" width="157.49" height="88.13" viewBox="0 0 157.49 88.13" preserveAspectRatio="none">
  <path fill="#111" fill-rule="evenodd" d="M84.77 0.05C84.13 0.13 83.52 0.39 82.89 0.52C82.25 0.64 81.60 0.71 80.95 0.78C80.31 0.86 79.66 0.92 79.01 0.98C78.36 1.03 77.71 1.05 77.07 1.12C76.42 1.18 75.77 1.26 75.13 1.36C74.48 1.45 73.85 1.58 73.20 1.68C72.56 1.78 71.91 1.86 71.27 1.95C70.62 2.04 69.97 2.10 69.34 2.22C68.70 2.34 68.07 2.53 67.43 2.65C66.79 2.78 66.15 2.88 65.51 2.98C64.86 3.09 64.22 3.17 63.58 3.29C62.94 3.42 62.31 3.62 61.68 3.75C61.04 3.89 60.39 3.96 59.76 4.10C59.12 4.25 58.50 4.44 57.87 4.59C57.24 4.75 56.60 4.88 55.96 5.02C55.33 5.16 54.68 5.27 54.06 5.43C53.43 5.59 52.81 5.82 52.19 6.00C51.56 6.18 50.94 6.34 50.31 6.51C49.68 6.69 49.06 6.86 48.44 7.04C47.81 7.23 47.19 7.42 46.57 7.60C45.95 7.79 45.31 7.94 44.70 8.16C44.09 8.38 43.52 8.70 42.91 8.92C42.30 9.14 41.66 9.28 41.04 9.48C40.42 9.68 39.81 9.87 39.20 10.11C38.60 10.34 38.03 10.66 37.43 10.90C36.83 11.15 36.22 11.36 35.61 11.59C35.01 11.82 34.39 12.01 33.79 12.26C33.20 12.51 32.63 12.82 32.05 13.11C31.48 13.40 30.91 13.70 30.34 14.00C29.77 14.30 29.20 14.61 28.63 14.92C28.07 15.23 27.51 15.56 26.95 15.87C26.38 16.19 25.81 16.48 25.25 16.81C24.70 17.14 24.17 17.50 23.63 17.85C23.08 18.19 22.52 18.53 21.98 18.88C21.43 19.23 20.90 19.58 20.37 19.95C19.83 20.31 19.30 20.68 18.78 21.08C18.27 21.47 17.76 21.87 17.27 22.30C16.79 22.73 16.35 23.21 15.89 23.67C15.43 24.13 14.96 24.58 14.52 25.05C14.07 25.53 13.62 26.00 13.24 26.53C12.87 27.05 12.53 27.62 12.29 28.21C12.05 28.81 11.87 29.46 11.78 30.09C11.69 30.72 11.66 31.39 11.78 32.02C11.89 32.64 12.10 33.30 12.44 33.82C12.78 34.34 13.33 34.77 13.84 35.16C14.34 35.55 14.92 35.87 15.48 36.18C16.05 36.49 16.63 36.76 17.23 37.01C17.83 37.26 18.44 37.51 19.06 37.67C19.69 37.84 20.34 37.92 20.98 38.01C21.63 38.10 22.28 38.16 22.92 38.22C23.57 38.29 24.22 38.36 24.86 38.39C25.51 38.43 26.16 38.45 26.81 38.46C27.47 38.47 28.12 38.46 28.77 38.46C29.42 38.46 30.07 38.45 30.72 38.47C31.37 38.49 32.07 38.66 32.66 38.59C33.25 38.52 34.26 38.29 34.28 38.05C34.30 37.81 33.34 37.33 32.76 37.16C32.18 36.99 31.46 37.07 30.81 37.05C30.16 37.03 29.51 37.04 28.86 37.03C28.21 37.01 27.56 36.99 26.91 36.96C26.26 36.93 25.61 36.90 24.96 36.85C24.31 36.79 23.66 36.75 23.02 36.65C22.38 36.55 21.74 36.39 21.11 36.24C20.48 36.09 19.83 35.97 19.22 35.76C18.61 35.54 17.98 35.31 17.44 34.97C16.89 34.63 16.37 34.20 15.95 33.72C15.53 33.24 15.09 32.70 14.91 32.11C14.73 31.51 14.77 30.79 14.86 30.17C14.95 29.54 15.18 28.91 15.48 28.34C15.77 27.78 16.22 27.28 16.63 26.78C17.04 26.27 17.47 25.79 17.91 25.31C18.35 24.83 18.80 24.35 19.28 23.91C19.75 23.47 20.29 23.10 20.78 22.68C21.27 22.26 21.73 21.79 22.24 21.40C22.75 21.00 23.31 20.66 23.84 20.29C24.37 19.93 24.90 19.54 25.44 19.19C25.98 18.84 26.53 18.50 27.09 18.17C27.64 17.84 28.21 17.54 28.78 17.23C29.35 16.93 29.92 16.62 30.49 16.34C31.07 16.05 31.66 15.78 32.24 15.51C32.83 15.23 33.41 14.96 33.99 14.68C34.58 14.41 35.16 14.14 35.74 13.85C36.32 13.57 36.88 13.25 37.46 12.97C38.05 12.69 38.63 12.42 39.23 12.18C39.84 11.95 40.47 11.77 41.08 11.55C41.69 11.33 42.29 11.11 42.90 10.88C43.51 10.64 44.09 10.35 44.71 10.15C45.32 9.95 45.97 9.84 46.59 9.65C47.21 9.46 47.81 9.19 48.43 8.99C49.05 8.79 49.68 8.65 50.31 8.47C50.93 8.29 51.54 8.08 52.17 7.90C52.79 7.71 53.41 7.52 54.04 7.35C54.67 7.19 55.31 7.06 55.94 6.91C56.58 6.76 57.21 6.61 57.84 6.45C58.47 6.29 59.09 6.12 59.73 5.97C60.36 5.82 61.00 5.70 61.64 5.56C62.27 5.41 62.90 5.22 63.53 5.09C64.17 4.96 64.83 4.91 65.46 4.78C66.10 4.65 66.72 4.45 67.36 4.32C68.00 4.19 68.64 4.09 69.29 3.99C69.93 3.90 70.58 3.84 71.22 3.73C71.86 3.63 72.50 3.46 73.14 3.35C73.78 3.24 74.42 3.15 75.07 3.07C75.71 2.99 76.36 2.95 77.01 2.87C77.66 2.80 78.30 2.71 78.95 2.62C79.59 2.54 80.24 2.45 80.88 2.38C81.53 2.30 82.18 2.22 82.82 2.16C83.47 2.10 84.12 2.06 84.77 2.02C85.42 1.99 86.07 1.99 86.72 1.95C87.37 1.92 88.02 1.86 88.67 1.83C89.31 1.80 89.96 1.77 90.62 1.76C91.27 1.75 91.92 1.78 92.57 1.76C93.22 1.74 93.86 1.67 94.51 1.67C95.16 1.67 95.81 1.73 96.46 1.76C97.11 1.79 97.76 1.80 98.41 1.83C99.06 1.85 99.71 1.86 100.36 1.89C101.01 1.92 101.66 1.98 102.31 2.02C102.96 2.06 103.61 2.08 104.25 2.16C104.90 2.23 105.54 2.35 106.18 2.46C106.82 2.57 107.46 2.70 108.10 2.81C108.74 2.93 109.40 2.99 110.03 3.15C110.66 3.31 111.26 3.59 111.88 3.78C112.50 3.97 113.14 4.09 113.75 4.29C114.37 4.49 114.97 4.72 115.57 4.98C116.16 5.24 116.74 5.54 117.30 5.85C117.87 6.16 118.43 6.48 118.97 6.83C119.50 7.18 120.05 7.55 120.54 7.97C121.03 8.39 121.50 8.84 121.91 9.34C122.32 9.84 122.71 10.38 123.00 10.95C123.29 11.53 123.47 12.16 123.64 12.78C123.81 13.40 123.99 14.04 124.01 14.68C124.04 15.32 123.90 15.96 123.79 16.60C123.67 17.24 123.54 17.89 123.33 18.50C123.11 19.11 122.78 19.68 122.48 20.25C122.19 20.82 121.88 21.39 121.54 21.94C121.20 22.49 120.83 23.02 120.45 23.55C120.07 24.07 119.66 24.57 119.25 25.08C118.85 25.59 118.45 26.11 118.03 26.61C117.61 27.10 117.17 27.58 116.72 28.04C116.27 28.51 115.80 28.95 115.34 29.42C114.89 29.88 114.45 30.36 113.98 30.81C113.52 31.26 113.02 31.68 112.54 32.12C112.06 32.55 111.58 32.99 111.09 33.42C110.61 33.86 110.11 34.28 109.62 34.70C109.12 35.12 108.62 35.54 108.12 35.95C107.62 36.36 107.10 36.75 106.60 37.15C106.09 37.55 105.58 37.96 105.07 38.35C104.55 38.74 104.02 39.12 103.51 39.51C102.99 39.90 102.49 40.32 101.98 40.71C101.46 41.10 100.93 41.47 100.40 41.85C99.88 42.24 99.36 42.62 98.83 43.00C98.31 43.38 97.79 43.78 97.25 44.12C96.70 44.46 96.15 44.79 95.56 45.06C94.97 45.32 94.35 45.53 93.72 45.70C93.10 45.87 92.45 45.94 91.81 46.09C91.18 46.24 90.56 46.43 89.93 46.60C89.30 46.76 88.67 46.92 88.04 47.07C87.41 47.23 86.77 47.35 86.14 47.51C85.51 47.67 84.89 47.88 84.26 48.03C83.63 48.18 82.98 48.26 82.35 48.42C81.72 48.58 81.11 48.83 80.48 48.98C79.85 49.14 79.19 49.19 78.56 49.36C77.94 49.53 77.35 49.82 76.72 50.00C76.10 50.19 75.45 50.28 74.83 50.46C74.20 50.63 73.60 50.88 72.97 51.06C72.35 51.24 71.72 51.38 71.09 51.56C70.47 51.73 69.85 51.92 69.22 52.10C68.60 52.28 67.98 52.49 67.36 52.66C66.73 52.84 66.09 52.96 65.47 53.15C64.85 53.34 64.26 53.61 63.64 53.81C63.02 54.01 62.38 54.13 61.77 54.34C61.15 54.54 60.56 54.83 59.95 55.03C59.33 55.24 58.69 55.37 58.07 55.56C57.45 55.74 56.83 55.93 56.22 56.15C55.61 56.36 55.02 56.63 54.40 56.83C53.78 57.02 53.03 57.36 52.51 57.31C51.99 57.26 51.33 56.96 51.26 56.54C51.19 56.12 51.82 55.38 52.09 54.79C52.36 54.20 52.63 53.62 52.87 53.02C53.11 52.42 53.29 51.79 53.51 51.19C53.74 50.58 53.96 49.97 54.22 49.38C54.48 48.79 54.79 48.22 55.06 47.63C55.32 47.04 55.58 46.45 55.81 45.84C56.04 45.24 56.21 44.61 56.44 44.00C56.67 43.40 56.92 42.81 57.18 42.22C57.45 41.63 57.77 41.06 58.03 40.47C58.29 39.87 58.52 39.27 58.74 38.67C58.97 38.06 59.15 37.44 59.39 36.84C59.63 36.23 59.90 35.65 60.17 35.06C60.44 34.47 60.74 33.90 60.99 33.30C61.24 32.71 61.46 32.10 61.68 31.49C61.91 30.89 62.10 30.27 62.35 29.67C62.59 29.07 62.89 28.49 63.16 27.90C63.42 27.31 63.72 26.74 63.96 26.14C64.20 25.54 64.39 24.92 64.60 24.31C64.82 23.70 64.99 23.07 65.23 22.47C65.47 21.87 65.82 21.31 66.03 20.70C66.24 20.09 66.33 19.43 66.51 18.80C66.68 18.18 66.92 17.57 67.08 16.94C67.24 16.31 67.36 15.67 67.47 15.03C67.58 14.39 67.91 13.63 67.73 13.12C67.56 12.62 66.85 12.00 66.41 11.99C65.98 11.99 65.43 12.62 65.10 13.11C64.76 13.60 64.60 14.31 64.42 14.94C64.25 15.56 64.22 16.23 64.04 16.85C63.86 17.47 63.55 18.06 63.35 18.68C63.15 19.29 63.04 19.94 62.84 20.55C62.64 21.17 62.38 21.76 62.14 22.36C61.89 22.96 61.59 23.53 61.36 24.13C61.13 24.74 60.97 25.37 60.75 25.98C60.54 26.59 60.32 27.20 60.07 27.79C59.82 28.39 59.50 28.96 59.24 29.55C58.98 30.14 58.73 30.73 58.50 31.34C58.27 31.94 58.10 32.58 57.87 33.18C57.64 33.78 57.38 34.37 57.12 34.96C56.85 35.55 56.54 36.13 56.29 36.72C56.04 37.32 55.82 37.93 55.60 38.53C55.38 39.14 55.20 39.76 54.96 40.36C54.72 40.96 54.43 41.54 54.16 42.13C53.89 42.72 53.59 43.29 53.34 43.89C53.10 44.49 52.93 45.12 52.71 45.73C52.49 46.34 52.28 46.95 52.03 47.54C51.78 48.14 51.46 48.71 51.20 49.30C50.93 49.89 50.68 50.48 50.45 51.08C50.23 51.69 50.07 52.33 49.84 52.94C49.62 53.54 49.36 54.13 49.10 54.72C48.84 55.31 48.54 55.89 48.28 56.48C48.02 57.07 47.91 57.76 47.55 58.27C47.19 58.78 46.65 59.22 46.11 59.54C45.57 59.86 44.89 59.95 44.29 60.19C43.70 60.43 43.12 60.75 42.52 60.99C41.92 61.22 41.29 61.39 40.68 61.60C40.06 61.81 39.45 62.00 38.84 62.24C38.24 62.47 37.66 62.78 37.06 63.02C36.46 63.26 35.85 63.46 35.24 63.68C34.64 63.90 34.01 64.09 33.41 64.33C32.81 64.57 32.23 64.85 31.64 65.12C31.05 65.39 30.49 65.70 29.89 65.94C29.30 66.19 28.67 66.38 28.06 66.60C27.46 66.82 26.83 67.01 26.24 67.26C25.65 67.52 25.08 67.83 24.50 68.11C23.92 68.39 23.34 68.69 22.76 68.96C22.18 69.23 21.59 69.49 21.00 69.75C20.41 70.01 19.80 70.25 19.21 70.51C18.62 70.77 18.03 71.03 17.45 71.32C16.88 71.60 16.32 71.92 15.75 72.23C15.18 72.53 14.61 72.84 14.04 73.15C13.48 73.46 12.92 73.78 12.36 74.10C11.80 74.42 11.24 74.75 10.68 75.07C10.12 75.39 9.55 75.71 9.00 76.04C8.45 76.38 7.92 76.74 7.38 77.09C6.84 77.44 6.27 77.77 5.75 78.14C5.22 78.52 4.72 78.93 4.23 79.35C3.74 79.77 3.27 80.22 2.81 80.68C2.35 81.14 1.88 81.59 1.47 82.09C1.07 82.59 0.64 83.12 0.39 83.68C0.15 84.23 -0.09 84.90 0.00 85.43C0.09 85.96 0.52 86.41 0.92 86.85C1.32 87.29 1.83 87.86 2.41 88.06C2.98 88.26 3.71 88.07 4.36 88.07C5.01 88.07 5.67 88.07 6.32 88.07C6.97 88.07 7.64 88.16 8.27 88.07C8.90 87.97 9.47 87.66 10.09 87.49C10.70 87.32 11.35 87.17 11.98 87.04C12.62 86.91 13.28 86.86 13.91 86.71C14.54 86.56 15.14 86.30 15.77 86.12C16.39 85.94 17.02 85.80 17.65 85.62C18.27 85.45 18.89 85.25 19.51 85.06C20.13 84.87 20.75 84.69 21.37 84.50C21.99 84.30 22.62 84.14 23.23 83.91C23.84 83.69 24.42 83.38 25.02 83.16C25.63 82.93 26.26 82.76 26.87 82.56C27.49 82.36 28.12 82.19 28.72 81.96C29.32 81.72 29.89 81.40 30.49 81.15C31.09 80.91 31.71 80.72 32.32 80.50C32.93 80.29 33.55 80.10 34.15 79.87C34.75 79.63 35.33 79.33 35.93 79.08C36.52 78.82 37.11 78.55 37.71 78.33C38.32 78.10 38.96 77.95 39.56 77.72C40.16 77.49 40.75 77.21 41.33 76.94C41.92 76.67 42.50 76.37 43.09 76.10C43.68 75.83 44.26 75.57 44.86 75.33C45.46 75.09 46.09 74.90 46.68 74.66C47.28 74.42 47.87 74.16 48.46 73.89C49.04 73.62 49.62 73.32 50.20 73.03C50.78 72.75 51.35 72.44 51.93 72.17C52.52 71.90 53.11 71.65 53.70 71.40C54.30 71.15 54.91 70.93 55.50 70.68C56.09 70.42 56.67 70.15 57.25 69.86C57.83 69.58 58.40 69.28 58.97 68.98C59.54 68.68 60.11 68.38 60.69 68.08C61.26 67.79 61.84 67.49 62.41 67.20C62.99 66.92 63.57 66.65 64.15 66.37C64.73 66.08 65.31 65.80 65.89 65.51C66.47 65.23 67.05 64.95 67.63 64.66C68.21 64.37 68.78 64.08 69.36 63.79C69.93 63.50 70.50 63.20 71.07 62.90C71.63 62.59 72.19 62.26 72.76 61.94C73.32 61.63 73.88 61.31 74.44 60.99C75.00 60.67 75.56 60.34 76.12 60.02C76.68 59.70 77.24 59.39 77.80 59.07C78.36 58.75 78.92 58.42 79.48 58.10C80.04 57.78 80.60 57.45 81.16 57.12C81.71 56.79 82.26 56.45 82.81 56.12C83.36 55.78 83.91 55.44 84.47 55.12C85.02 54.79 85.59 54.48 86.14 54.15C86.69 53.81 87.23 53.46 87.78 53.11C88.33 52.77 88.89 52.44 89.44 52.10C89.98 51.76 90.52 51.40 91.07 51.06C91.61 50.71 92.16 50.37 92.71 50.02C93.25 49.67 93.80 49.33 94.35 48.98C94.89 48.64 95.43 48.29 95.98 47.95C96.53 47.62 97.08 47.27 97.66 46.98C98.23 46.68 98.80 46.35 99.42 46.16C100.03 45.96 100.71 45.95 101.34 45.80C101.97 45.66 102.59 45.43 103.22 45.29C103.86 45.15 104.51 45.08 105.15 44.96C105.79 44.84 106.42 44.71 107.06 44.57C107.70 44.43 108.32 44.26 108.96 44.13C109.60 44.00 110.25 43.95 110.89 43.82C111.53 43.69 112.15 43.48 112.79 43.35C113.43 43.22 114.07 43.13 114.71 43.02C115.35 42.92 116.00 42.83 116.64 42.72C117.28 42.60 117.93 42.39 118.56 42.33C119.18 42.28 120.19 42.06 120.41 42.37C120.62 42.68 120.07 43.59 119.87 44.20C119.67 44.81 119.47 45.43 119.22 46.03C118.97 46.63 118.65 47.19 118.38 47.78C118.11 48.36 117.84 48.95 117.62 49.56C117.39 50.16 117.26 50.81 117.03 51.41C116.80 52.01 116.50 52.58 116.23 53.17C115.97 53.76 115.67 54.34 115.44 54.94C115.21 55.55 115.14 56.22 114.86 56.79C114.58 57.36 114.21 57.89 113.79 58.37C113.36 58.84 112.85 59.28 112.31 59.64C111.78 60.00 111.12 60.52 110.58 60.53C110.04 60.53 109.26 60.12 109.07 59.66C108.87 59.20 109.37 58.38 109.41 57.75C109.45 57.12 109.64 56.22 109.32 55.88C108.99 55.54 108.02 55.55 107.44 55.72C106.87 55.89 106.38 56.47 105.89 56.89C105.39 57.31 104.93 57.78 104.45 58.21C103.97 58.65 103.52 59.12 103.01 59.51C102.49 59.90 101.73 60.57 101.36 60.54C100.98 60.51 100.66 59.81 100.73 59.33C100.80 58.86 101.37 58.21 101.76 57.69C102.15 57.18 102.61 56.71 103.06 56.25C103.52 55.79 103.98 55.33 104.49 54.93C105.00 54.54 105.54 54.08 106.12 53.88C106.70 53.68 107.36 53.69 107.96 53.73C108.55 53.78 109.42 54.36 109.70 54.15C109.99 53.94 109.91 52.91 109.68 52.46C109.45 52.02 108.88 51.66 108.33 51.50C107.78 51.34 106.97 51.33 106.38 51.50C105.79 51.66 105.36 52.16 104.82 52.48C104.27 52.79 103.65 53.03 103.10 53.37C102.55 53.71 102.03 54.10 101.53 54.51C101.03 54.92 100.55 55.35 100.10 55.82C99.66 56.29 99.22 56.80 98.86 57.33C98.50 57.86 98.19 58.47 97.93 59.03C97.67 59.59 97.27 60.17 97.32 60.69C97.37 61.20 97.79 61.80 98.22 62.13C98.65 62.46 99.29 62.56 99.89 62.64C100.50 62.73 101.26 62.82 101.85 62.64C102.43 62.47 102.88 61.97 103.40 61.62C103.93 61.27 104.50 60.81 105.01 60.55C105.53 60.29 106.09 59.86 106.52 60.04C106.95 60.21 107.14 61.18 107.60 61.60C108.05 62.03 108.68 62.57 109.25 62.61C109.82 62.64 110.42 62.05 111.03 61.82C111.63 61.59 112.34 61.35 112.87 61.22C113.40 61.09 113.81 60.83 114.21 61.04C114.60 61.24 114.84 62.04 115.25 62.47C115.67 62.90 116.13 63.43 116.70 63.62C117.26 63.81 118.00 63.62 118.65 63.62C119.30 63.62 120.01 63.77 120.60 63.62C121.20 63.47 121.68 63.02 122.25 62.73C122.81 62.43 123.42 62.19 123.98 61.86C124.53 61.52 125.09 60.97 125.56 60.73C126.03 60.49 126.38 60.23 126.79 60.41C127.19 60.59 127.52 61.39 127.98 61.81C128.44 62.22 128.96 62.72 129.54 62.91C130.12 63.10 130.83 62.96 131.48 62.97C132.13 62.98 132.80 63.02 133.44 62.97C134.07 62.91 134.68 62.83 135.28 62.64C135.88 62.45 136.46 62.13 137.04 61.85C137.63 61.57 138.22 61.28 138.77 60.95C139.33 60.61 139.89 60.25 140.37 59.83C140.85 59.40 141.28 58.87 141.67 58.39C142.06 57.90 142.72 57.23 142.69 56.91C142.67 56.60 141.95 56.36 141.51 56.51C141.07 56.65 140.54 57.37 140.05 57.80C139.55 58.22 139.08 58.68 138.57 59.07C138.05 59.46 137.52 59.84 136.95 60.16C136.39 60.47 135.80 60.79 135.18 60.97C134.57 61.16 133.90 61.25 133.26 61.28C132.61 61.31 131.91 61.34 131.32 61.17C130.73 60.99 130.00 60.68 129.73 60.22C129.46 59.75 129.42 58.73 129.71 58.37C130.01 58.01 130.90 58.12 131.52 58.06C132.15 58.00 132.84 58.14 133.47 58.03C134.10 57.91 134.74 57.67 135.30 57.37C135.85 57.06 136.41 56.67 136.82 56.20C137.23 55.73 137.73 55.11 137.77 54.54C137.81 53.98 137.46 53.15 137.05 52.81C136.63 52.46 135.90 52.53 135.28 52.47C134.65 52.42 133.92 52.33 133.32 52.47C132.72 52.62 132.22 53.05 131.66 53.34C131.09 53.62 130.47 53.85 129.93 54.20C129.39 54.54 128.87 54.96 128.42 55.41C127.96 55.87 127.61 56.44 127.20 56.94C126.78 57.44 126.40 57.96 125.92 58.39C125.45 58.83 124.89 59.19 124.36 59.56C123.83 59.93 123.29 60.31 122.72 60.61C122.14 60.91 121.54 61.19 120.92 61.36C120.30 61.54 119.59 61.76 119.00 61.67C118.40 61.58 117.66 61.29 117.37 60.83C117.08 60.37 117.21 59.54 117.27 58.90C117.32 58.26 117.52 57.63 117.69 57.00C117.86 56.38 118.05 55.75 118.27 55.15C118.50 54.54 118.82 53.98 119.04 53.38C119.27 52.77 119.43 52.13 119.65 51.52C119.87 50.92 120.11 50.33 120.38 49.74C120.64 49.15 120.96 48.58 121.22 47.99C121.48 47.40 121.72 46.80 121.95 46.19C122.18 45.59 122.35 44.96 122.59 44.36C122.84 43.76 123.04 43.12 123.40 42.60C123.75 42.09 124.17 41.54 124.72 41.27C125.26 41.00 126.00 41.09 126.65 41.00C127.29 40.91 127.94 40.81 128.58 40.73C129.23 40.65 129.87 40.58 130.52 40.50C131.17 40.43 131.82 40.37 132.46 40.26C133.09 40.16 133.70 39.99 134.33 39.86C134.97 39.73 135.61 39.60 136.25 39.49C136.89 39.38 137.54 39.26 138.18 39.19C138.83 39.11 139.48 39.09 140.13 39.02C140.77 38.96 141.42 38.91 142.07 38.82C142.71 38.73 143.35 38.59 143.99 38.50C144.64 38.40 145.28 38.32 145.93 38.25C146.58 38.18 147.22 38.13 147.87 38.07C148.52 38.01 149.17 37.96 149.81 37.90C150.46 37.83 151.11 37.74 151.75 37.66C152.40 37.58 153.04 37.48 153.69 37.42C154.34 37.35 155.01 37.37 155.63 37.27C156.26 37.17 157.33 37.03 157.42 36.82C157.51 36.60 156.69 36.12 156.16 35.98C155.62 35.84 154.85 35.96 154.20 35.98C153.55 36.01 152.90 36.06 152.26 36.12C151.61 36.18 150.96 36.27 150.32 36.36C149.67 36.45 149.03 36.56 148.39 36.64C147.74 36.72 147.09 36.80 146.45 36.86C145.80 36.93 145.15 36.97 144.50 37.03C143.86 37.08 143.21 37.13 142.56 37.21C141.92 37.29 141.28 37.41 140.63 37.50C139.99 37.60 139.34 37.69 138.70 37.76C138.05 37.84 137.40 37.89 136.75 37.95C136.11 38.01 135.46 38.05 134.81 38.13C134.17 38.21 133.53 38.37 132.89 38.45C132.24 38.53 131.59 38.54 130.94 38.60C130.29 38.66 129.65 38.75 129.00 38.78C128.35 38.82 127.63 38.90 127.04 38.79C126.46 38.67 125.64 38.52 125.49 38.11C125.34 37.70 125.94 36.94 126.14 36.33C126.34 35.72 126.48 35.07 126.71 34.47C126.94 33.86 127.34 33.32 127.51 32.70C127.68 32.09 127.95 31.15 127.75 30.78C127.55 30.40 126.70 30.23 126.30 30.46C125.90 30.69 125.67 31.58 125.37 32.16C125.07 32.73 124.79 33.31 124.50 33.89C124.21 34.47 123.92 35.04 123.63 35.62C123.35 36.20 123.14 36.83 122.80 37.37C122.46 37.91 122.12 38.57 121.60 38.85C121.08 39.13 120.32 39.00 119.67 39.05C119.02 39.09 118.37 39.08 117.72 39.11C117.07 39.15 116.06 39.03 115.78 39.26C115.50 39.49 116.04 40.18 116.05 40.48C116.05 40.79 116.18 40.94 115.82 41.11C115.46 41.28 114.54 41.36 113.90 41.49C113.27 41.62 112.63 41.79 111.99 41.90C111.35 42.01 110.70 42.06 110.06 42.17C109.42 42.28 108.79 42.44 108.15 42.57C107.51 42.70 106.87 42.83 106.23 42.95C105.59 43.06 104.60 43.45 104.31 43.28C104.01 43.12 104.17 42.37 104.46 41.96C104.75 41.56 105.54 41.24 106.06 40.85C106.58 40.46 107.08 40.05 107.59 39.65C108.10 39.25 108.62 38.86 109.13 38.45C109.63 38.05 110.11 37.61 110.61 37.20C111.11 36.78 111.61 36.37 112.11 35.96C112.61 35.54 113.10 35.12 113.60 34.70C114.09 34.27 114.59 33.86 115.07 33.42C115.56 32.99 116.02 32.54 116.50 32.09C116.97 31.65 117.45 31.22 117.92 30.76C118.38 30.31 118.84 29.84 119.28 29.37C119.72 28.89 120.16 28.41 120.58 27.92C121.00 27.43 121.40 26.91 121.82 26.41C122.24 25.92 122.69 25.44 123.09 24.93C123.50 24.43 123.88 23.90 124.25 23.37C124.61 22.83 124.97 22.28 125.29 21.72C125.61 21.16 125.93 20.59 126.19 20.00C126.45 19.41 126.66 18.79 126.85 18.17C127.03 17.55 127.22 16.92 127.30 16.28C127.39 15.64 127.39 14.98 127.36 14.33C127.33 13.68 127.29 13.02 127.12 12.40C126.95 11.78 126.65 11.18 126.35 10.61C126.04 10.04 125.69 9.49 125.31 8.97C124.93 8.45 124.52 7.93 124.07 7.47C123.61 7.01 123.10 6.60 122.59 6.20C122.07 5.81 121.53 5.44 120.98 5.11C120.43 4.78 119.85 4.50 119.27 4.21C118.68 3.93 118.09 3.65 117.49 3.43C116.88 3.21 116.23 3.10 115.62 2.89C115.01 2.67 114.44 2.33 113.82 2.14C113.20 1.96 112.53 1.94 111.90 1.79C111.27 1.64 110.65 1.39 110.02 1.26C109.38 1.14 108.73 1.11 108.08 1.03C107.44 0.95 106.78 0.89 106.15 0.77C105.51 0.65 104.88 0.44 104.25 0.31C103.62 0.18 102.99 0.05 102.35 0.00C101.71 -0.05 101.05 0.00 100.40 0.00C99.75 0.00 99.09 0.00 98.44 0.00C97.79 0.00 97.14 0.00 96.49 0.00C95.84 0.00 95.19 0.00 94.53 0.00C93.88 0.00 93.23 0.00 92.58 0.00C91.93 0.00 91.28 0.00 90.63 0.00C89.97 0.00 89.32 0.00 88.67 0.00C88.02 0.00 87.37 -0.01 86.72 0.00C86.07 0.01 85.41 -0.04 84.77 0.05Z M44.72 62.30C45.17 62.35 45.57 62.87 45.61 63.35C45.65 63.83 45.19 64.58 44.95 65.19C44.71 65.79 44.42 66.38 44.16 66.97C43.91 67.57 43.63 68.16 43.41 68.77C43.19 69.38 42.94 70.02 42.82 70.63C42.70 71.24 42.68 71.87 42.69 72.44C42.70 73.00 43.13 73.63 42.85 74.01C42.58 74.39 41.65 74.50 41.05 74.73C40.44 74.96 39.81 75.15 39.21 75.39C38.61 75.64 38.03 75.92 37.43 76.19C36.84 76.46 36.26 76.76 35.66 77.01C35.07 77.26 34.45 77.48 33.84 77.69C33.23 77.91 32.59 78.07 31.98 78.30C31.38 78.54 30.80 78.85 30.21 79.10C29.61 79.36 29.02 79.63 28.41 79.85C27.80 80.08 27.16 80.22 26.54 80.44C25.92 80.65 25.32 80.90 24.71 81.13C24.10 81.36 23.51 81.62 22.89 81.82C22.27 82.01 21.61 82.11 20.99 82.32C20.38 82.53 19.80 82.85 19.19 83.08C18.58 83.31 17.96 83.50 17.33 83.68C16.71 83.87 16.07 84.01 15.45 84.20C14.82 84.38 14.22 84.64 13.59 84.81C12.96 84.98 12.31 85.09 11.68 85.24C11.04 85.39 10.41 85.57 9.77 85.71C9.14 85.86 8.50 86.01 7.85 86.10C7.20 86.19 6.53 86.28 5.89 86.24C5.25 86.20 4.34 86.23 4.01 85.86C3.68 85.49 3.73 84.60 3.89 84.03C4.05 83.45 4.57 82.92 4.98 82.42C5.40 81.93 5.90 81.50 6.39 81.06C6.87 80.62 7.36 80.19 7.87 79.79C8.39 79.40 8.94 79.04 9.48 78.69C10.03 78.34 10.60 78.02 11.15 77.68C11.70 77.34 12.24 76.97 12.79 76.63C13.35 76.29 13.90 75.95 14.46 75.63C15.03 75.32 15.62 75.04 16.19 74.75C16.77 74.45 17.35 74.16 17.93 73.87C18.50 73.57 19.07 73.26 19.65 72.96C20.22 72.65 20.80 72.36 21.37 72.06C21.95 71.76 22.52 71.45 23.10 71.17C23.68 70.88 24.26 70.60 24.85 70.34C25.45 70.08 26.06 69.85 26.66 69.61C27.26 69.36 27.86 69.13 28.46 68.87C29.05 68.60 29.63 68.30 30.22 68.03C30.80 67.75 31.38 67.45 31.98 67.21C32.58 66.96 33.21 66.76 33.82 66.54C34.43 66.32 35.05 66.13 35.65 65.88C36.25 65.63 36.82 65.32 37.42 65.06C38.02 64.80 38.62 64.54 39.23 64.33C39.84 64.12 40.50 63.99 41.11 63.78C41.72 63.56 42.31 63.28 42.91 63.03C43.51 62.79 44.27 62.25 44.72 62.30Z M133.89 54.21C134.25 54.21 134.79 54.33 134.93 54.58C135.07 54.82 134.93 55.39 134.73 55.68C134.53 55.97 134.11 56.17 133.75 56.31C133.39 56.46 132.96 56.59 132.58 56.56C132.21 56.54 131.63 56.39 131.49 56.17C131.34 55.94 131.52 55.46 131.74 55.20C131.95 54.94 132.40 54.75 132.76 54.59C133.12 54.43 133.53 54.21 133.89 54.21Z M87.94 48.93C88.42 48.98 89.08 49.47 88.98 49.77C88.87 50.07 87.86 50.40 87.30 50.72C86.75 51.05 86.19 51.38 85.64 51.72C85.09 52.06 84.55 52.41 84.00 52.74C83.45 53.07 82.88 53.38 82.33 53.70C81.78 54.03 81.23 54.37 80.67 54.70C80.12 55.02 79.56 55.34 79.01 55.66C78.45 55.98 77.89 56.30 77.33 56.62C76.78 56.94 76.22 57.26 75.66 57.59C75.11 57.91 74.57 58.26 74.01 58.57C73.45 58.89 72.86 59.17 72.29 59.47C71.72 59.77 71.16 60.07 70.59 60.37C70.03 60.67 69.47 60.99 68.90 61.29C68.34 61.60 67.78 61.91 67.21 62.21C66.65 62.52 66.08 62.82 65.52 63.13C64.95 63.43 64.39 63.75 63.82 64.05C63.25 64.36 62.69 64.66 62.12 64.96C61.55 65.26 60.99 65.57 60.41 65.84C59.83 66.12 59.24 66.37 58.65 66.64C58.06 66.90 57.46 67.14 56.88 67.41C56.30 67.68 55.72 67.95 55.15 68.24C54.57 68.53 54.01 68.83 53.43 69.13C52.86 69.42 52.29 69.72 51.71 69.99C51.13 70.27 50.54 70.53 49.95 70.78C49.35 71.03 48.73 71.23 48.14 71.48C47.55 71.73 46.93 72.20 46.39 72.29C45.85 72.39 45.11 72.42 44.92 72.07C44.74 71.72 45.09 70.78 45.28 70.17C45.48 69.56 45.80 68.99 46.09 68.41C46.37 67.83 46.70 67.28 46.99 66.70C47.28 66.13 47.57 65.55 47.84 64.97C48.11 64.38 48.36 63.78 48.61 63.19C48.86 62.60 48.99 61.92 49.36 61.41C49.73 60.90 50.27 60.46 50.82 60.14C51.37 59.82 52.04 59.71 52.66 59.50C53.27 59.30 53.89 59.14 54.50 58.93C55.11 58.71 55.69 58.41 56.30 58.22C56.92 58.02 57.58 57.94 58.19 57.75C58.81 57.55 59.39 57.26 60.00 57.05C60.61 56.83 61.22 56.64 61.84 56.45C62.45 56.26 63.09 56.12 63.70 55.91C64.31 55.71 64.90 55.40 65.52 55.22C66.14 55.04 66.80 55.02 67.42 54.83C68.04 54.65 68.62 54.32 69.23 54.13C69.85 53.94 70.51 53.87 71.13 53.69C71.75 53.52 72.34 53.25 72.96 53.06C73.58 52.87 74.22 52.74 74.84 52.56C75.46 52.39 76.07 52.18 76.69 52.00C77.32 51.82 77.94 51.65 78.57 51.48C79.19 51.31 79.82 51.15 80.44 50.98C81.07 50.81 81.69 50.63 82.31 50.46C82.94 50.29 83.57 50.14 84.19 49.98C84.82 49.81 85.44 49.64 86.07 49.46C86.69 49.29 87.45 48.88 87.94 48.93Z"/>
</svg>
