<svg xmlns="http://www.w3.org/2000/svg" width="176.0" height="94.99" viewBox="0 0 176.0 94.99" preserveAspectRatio="none">
  <path fill="#111" fill-rule="evenodd" d="M134.37 73.91C134.06 74.01 133.77 74.41 133.60 74.74C133.42 75.08 133.30 75.52 133.31 75.90C133.32 76.27 133.43 76.76 133.66 77.01C133.88 77.25 134.39 77.48 134.66 77.38C134.92 77.27 135.07 76.71 135.24 76.36C135.41 76.01 135.64 75.63 135.69 75.26C135.73 74.89 135.72 74.38 135.50 74.16C135.28 73.93 134.69 73.82 134.37 73.91Z M47.72 66.14C47.28 66.18 46.84 66.41 46.42 66.59C46.00 66.77 45.55 66.95 45.19 67.22C44.82 67.49 44.49 67.85 44.24 68.23C43.98 68.61 43.82 69.06 43.68 69.49C43.54 69.93 43.40 70.40 43.40 70.85C43.40 71.29 43.51 71.77 43.68 72.19C43.86 72.61 44.11 73.05 44.43 73.34C44.76 73.64 45.21 73.84 45.64 73.98C46.07 74.12 46.55 74.14 47.01 74.17C47.47 74.20 47.93 74.19 48.39 74.17C48.85 74.16 49.31 74.13 49.77 74.08C50.23 74.03 50.71 74.02 51.15 73.89C51.58 73.77 51.98 73.48 52.41 73.33C52.84 73.18 53.33 73.17 53.75 73.00C54.17 72.83 54.52 72.50 54.93 72.31C55.35 72.12 55.85 72.09 56.24 71.88C56.64 71.67 56.94 71.08 57.30 71.05C57.66 71.03 58.09 71.42 58.40 71.73C58.71 72.03 58.82 72.59 59.14 72.89C59.47 73.18 59.93 73.41 60.34 73.51C60.75 73.60 61.19 73.59 61.60 73.48C62.02 73.38 62.50 73.15 62.84 72.86C63.18 72.57 63.46 72.15 63.65 71.75C63.84 71.34 63.92 70.86 63.98 70.41C64.04 69.96 64.05 69.48 64.01 69.03C63.98 68.57 63.98 68.05 63.78 67.66C63.58 67.28 63.19 66.94 62.82 66.71C62.44 66.48 61.97 66.26 61.54 66.26C61.11 66.26 60.65 66.54 60.24 66.74C59.83 66.94 59.41 67.15 59.10 67.47C58.80 67.79 58.65 68.28 58.41 68.67C58.16 69.05 57.95 69.48 57.62 69.79C57.30 70.09 56.85 70.28 56.44 70.48C56.03 70.68 55.57 70.76 55.16 70.97C54.76 71.17 54.42 71.53 54.00 71.70C53.59 71.88 53.09 71.86 52.65 72.00C52.21 72.14 51.82 72.40 51.38 72.55C50.95 72.69 50.50 72.80 50.05 72.87C49.59 72.94 49.12 72.95 48.66 72.96C48.20 72.98 47.73 73.03 47.28 72.96C46.84 72.89 46.35 72.78 46.00 72.53C45.65 72.27 45.31 71.83 45.18 71.42C45.05 71.00 45.11 70.48 45.22 70.04C45.32 69.61 45.54 69.16 45.80 68.79C46.06 68.42 46.41 68.10 46.77 67.84C47.14 67.58 47.59 67.24 48.00 67.24C48.41 67.24 48.87 67.85 49.22 67.85C49.57 67.84 50.13 67.44 50.11 67.19C50.09 66.93 49.48 66.48 49.08 66.31C48.69 66.13 48.17 66.09 47.72 66.14Z M61.32 67.16C61.57 67.10 62.01 67.63 62.20 67.99C62.39 68.34 62.46 68.87 62.48 69.31C62.51 69.76 62.45 70.24 62.33 70.67C62.21 71.10 61.99 71.52 61.75 71.90C61.51 72.28 61.16 72.88 60.87 72.94C60.59 73.01 60.20 72.63 60.04 72.30C59.88 71.96 59.90 71.39 59.91 70.94C59.91 70.49 59.94 70.01 60.08 69.58C60.21 69.16 60.51 68.78 60.72 68.37C60.92 67.97 61.07 67.23 61.32 67.16Z M90.70 65.20C90.28 65.21 89.81 65.50 89.41 65.72C89.01 65.94 88.63 66.21 88.29 66.52C87.95 66.84 87.74 67.45 87.40 67.59C87.06 67.73 86.66 67.45 86.27 67.37C85.88 67.29 85.30 66.92 85.05 67.09C84.79 67.26 84.78 67.92 84.75 68.37C84.71 68.81 84.81 69.29 84.83 69.76C84.85 70.22 84.87 70.68 84.87 71.14C84.88 71.61 84.81 72.10 84.88 72.54C84.95 72.98 85.04 73.66 85.31 73.78C85.58 73.90 86.19 73.56 86.47 73.26C86.75 72.96 86.85 72.43 86.99 71.99C87.14 71.56 87.20 71.09 87.36 70.65C87.51 70.22 87.73 69.81 87.94 69.40C88.15 68.99 88.35 68.56 88.62 68.20C88.89 67.84 89.26 67.23 89.55 67.24C89.85 67.24 90.17 67.84 90.39 68.23C90.61 68.61 90.70 69.10 90.85 69.54C91.00 69.98 91.07 70.45 91.29 70.85C91.51 71.25 91.85 71.59 92.18 71.92C92.50 72.25 92.84 72.61 93.24 72.81C93.65 73.00 94.15 73.04 94.60 73.08C95.06 73.12 95.53 73.10 95.99 73.05C96.45 73.00 96.92 72.93 97.35 72.79C97.79 72.64 98.20 72.39 98.60 72.18C99.00 71.96 99.35 71.63 99.75 71.48C100.15 71.32 100.69 71.06 100.98 71.23C101.26 71.41 101.19 72.16 101.45 72.52C101.71 72.87 102.14 73.20 102.55 73.35C102.96 73.50 103.47 73.48 103.92 73.43C104.37 73.38 104.83 73.21 105.26 73.04C105.68 72.87 106.09 72.64 106.48 72.40C106.88 72.15 107.25 71.86 107.61 71.59C107.98 71.32 108.43 70.72 108.66 70.78C108.90 70.84 109.13 71.59 109.04 71.96C108.95 72.32 108.47 72.67 108.13 72.97C107.78 73.26 107.36 73.49 106.97 73.73C106.57 73.98 106.17 74.21 105.77 74.44C105.37 74.68 104.96 74.90 104.57 75.15C104.18 75.39 103.79 75.65 103.41 75.91C103.02 76.17 102.65 76.43 102.27 76.70C101.89 76.96 101.50 77.22 101.12 77.48C100.74 77.75 100.37 78.02 99.99 78.28C99.61 78.55 99.22 78.80 98.85 79.07C98.48 79.35 98.12 79.64 97.76 79.93C97.41 80.23 97.07 80.55 96.72 80.85C96.38 81.16 96.04 81.48 95.70 81.79C95.36 82.10 95.02 82.43 94.69 82.74C94.35 83.06 93.99 83.35 93.67 83.68C93.34 84.01 93.03 84.36 92.73 84.71C92.43 85.06 92.13 85.41 91.85 85.78C91.56 86.14 91.29 86.51 91.03 86.90C90.78 87.28 90.52 87.67 90.32 88.08C90.12 88.50 89.97 88.94 89.84 89.38C89.71 89.83 89.54 90.28 89.52 90.74C89.49 91.19 89.56 91.67 89.69 92.11C89.81 92.55 89.98 93.03 90.26 93.36C90.55 93.70 91.05 93.88 91.41 94.14C91.77 94.40 92.03 94.80 92.44 94.94C92.84 95.07 93.36 94.94 93.83 94.94C94.29 94.94 94.76 94.94 95.22 94.94C95.68 94.94 96.18 95.02 96.61 94.94C97.04 94.86 97.40 94.62 97.82 94.45C98.23 94.28 98.67 94.09 99.09 93.92C99.52 93.74 99.95 93.59 100.36 93.39C100.78 93.19 101.20 92.99 101.58 92.72C101.96 92.46 102.28 92.13 102.63 91.82C102.98 91.52 103.33 91.22 103.66 90.89C103.98 90.56 104.28 90.21 104.58 89.86C104.88 89.51 105.20 89.17 105.46 88.79C105.72 88.41 105.89 87.98 106.13 87.58C106.37 87.19 106.67 86.83 106.91 86.43C107.14 86.04 107.37 85.63 107.56 85.21C107.75 84.80 107.86 84.34 108.05 83.92C108.23 83.49 108.50 83.10 108.66 82.67C108.82 82.24 108.88 81.77 109.02 81.33C109.16 80.89 109.37 80.47 109.51 80.03C109.66 79.59 109.78 79.14 109.88 78.69C109.98 78.24 110.03 77.77 110.13 77.32C110.22 76.87 110.35 76.42 110.45 75.97C110.56 75.51 110.69 75.07 110.76 74.61C110.84 74.15 110.87 73.69 110.91 73.23C110.95 72.77 110.97 72.30 111.00 71.84C111.02 71.38 111.05 70.92 111.07 70.45C111.08 69.99 111.08 69.53 111.09 69.06C111.11 68.60 111.29 68.02 111.13 67.67C110.97 67.33 110.51 67.14 110.12 67.00C109.72 66.86 109.20 66.95 108.77 66.83C108.33 66.71 107.93 66.34 107.49 66.27C107.05 66.21 106.58 66.32 106.13 66.41C105.69 66.51 105.24 66.68 104.82 66.87C104.40 67.07 104.04 67.36 103.63 67.57C103.23 67.78 102.76 67.90 102.38 68.15C102.00 68.40 101.70 68.77 101.35 69.07C101.00 69.36 100.64 69.64 100.27 69.92C99.90 70.19 99.56 70.53 99.15 70.72C98.74 70.92 98.25 70.95 97.81 71.07C97.36 71.19 96.92 71.37 96.47 71.44C96.01 71.50 95.51 71.59 95.09 71.47C94.67 71.36 94.22 71.09 93.93 70.76C93.64 70.44 93.48 69.94 93.33 69.51C93.18 69.07 93.12 68.61 93.03 68.16C92.93 67.70 92.97 67.20 92.78 66.79C92.60 66.38 92.27 65.97 91.92 65.71C91.58 65.45 91.12 65.20 90.70 65.20Z M107.88 74.85C108.18 74.90 108.41 75.41 108.46 75.79C108.51 76.17 108.25 76.69 108.17 77.15C108.09 77.61 108.07 78.07 107.98 78.53C107.90 78.98 107.80 79.43 107.66 79.87C107.52 80.31 107.30 80.73 107.14 81.17C106.98 81.60 106.90 82.06 106.72 82.48C106.54 82.91 106.28 83.30 106.06 83.70C105.83 84.10 105.59 84.49 105.37 84.90C105.14 85.30 104.95 85.73 104.70 86.11C104.45 86.50 104.16 86.87 103.88 87.23C103.59 87.59 103.30 87.96 102.99 88.30C102.68 88.64 102.35 88.96 102.02 89.28C101.69 89.60 101.36 89.92 101.01 90.22C100.66 90.52 100.29 90.78 99.92 91.06C99.55 91.34 99.20 91.65 98.81 91.89C98.41 92.12 97.98 92.30 97.56 92.49C97.14 92.68 96.72 92.86 96.28 93.00C95.85 93.15 95.39 93.27 94.94 93.36C94.49 93.45 94.01 93.59 93.57 93.54C93.13 93.49 92.67 93.31 92.28 93.08C91.89 92.86 91.45 92.56 91.25 92.18C91.05 91.81 91.03 91.26 91.08 90.82C91.13 90.37 91.38 89.94 91.56 89.52C91.74 89.09 91.94 88.66 92.18 88.27C92.43 87.89 92.75 87.54 93.04 87.18C93.32 86.82 93.61 86.46 93.91 86.10C94.20 85.74 94.50 85.39 94.82 85.05C95.13 84.71 95.45 84.37 95.77 84.04C96.10 83.71 96.43 83.39 96.77 83.07C97.11 82.76 97.46 82.46 97.81 82.15C98.16 81.85 98.50 81.54 98.86 81.24C99.21 80.94 99.57 80.65 99.93 80.36C100.28 80.06 100.63 79.76 101.00 79.47C101.36 79.19 101.75 78.93 102.12 78.66C102.50 78.39 102.88 78.12 103.25 77.85C103.63 77.58 103.99 77.30 104.37 77.03C104.75 76.76 105.12 76.49 105.51 76.23C105.89 75.97 106.27 75.71 106.66 75.48C107.06 75.25 107.58 74.80 107.88 74.85Z M106.95 67.50C107.37 67.49 108.00 67.68 108.20 67.95C108.40 68.21 108.31 68.74 108.14 69.09C107.97 69.44 107.51 69.75 107.17 70.05C106.83 70.36 106.48 70.65 106.12 70.92C105.75 71.20 105.37 71.63 104.99 71.70C104.61 71.77 104.00 71.61 103.82 71.32C103.63 71.03 103.75 70.39 103.89 69.97C104.02 69.56 104.31 69.16 104.61 68.83C104.90 68.50 105.28 68.20 105.67 67.98C106.06 67.76 106.53 67.50 106.95 67.50Z M75.66 62.55C75.24 62.57 74.76 62.84 74.39 63.10C74.02 63.36 73.73 63.76 73.46 64.12C73.19 64.49 73.00 64.91 72.76 65.29C72.51 65.68 72.30 66.27 71.99 66.45C71.68 66.63 71.30 66.48 70.91 66.40C70.53 66.33 70.06 65.92 69.69 66.00C69.31 66.09 68.96 66.57 68.67 66.91C68.38 67.26 68.22 67.86 67.93 68.07C67.64 68.29 67.25 68.35 66.94 68.20C66.62 68.06 66.34 67.23 66.05 67.21C65.76 67.19 65.35 67.70 65.20 68.08C65.04 68.46 65.14 69.00 65.14 69.47C65.14 69.93 65.18 70.39 65.19 70.85C65.19 71.31 65.07 71.82 65.19 72.24C65.30 72.66 65.55 73.26 65.85 73.37C66.16 73.49 66.68 73.18 66.99 72.91C67.31 72.64 67.56 72.16 67.75 71.75C67.94 71.33 67.97 70.85 68.16 70.42C68.34 70.00 68.58 69.53 68.85 69.22C69.12 68.91 69.59 68.44 69.78 68.55C69.97 68.67 69.96 69.45 69.98 69.90C70.00 70.36 69.75 70.93 69.89 71.29C70.04 71.64 70.53 72.04 70.85 72.03C71.18 72.01 71.63 71.56 71.84 71.19C72.06 70.83 72.01 70.27 72.16 69.84C72.31 69.41 72.59 69.02 72.75 68.58C72.91 68.15 72.95 67.67 73.11 67.24C73.27 66.81 73.50 66.40 73.72 66.00C73.93 65.59 74.13 64.90 74.41 64.82C74.68 64.75 75.22 65.20 75.36 65.55C75.50 65.90 75.28 66.47 75.24 66.93C75.20 67.39 75.15 67.85 75.12 68.31C75.09 68.77 75.07 69.23 75.06 69.69C75.04 70.15 74.99 70.62 75.01 71.08C75.03 71.54 74.98 72.05 75.15 72.45C75.32 72.86 75.67 73.28 76.03 73.52C76.39 73.75 76.90 73.92 77.32 73.88C77.74 73.84 78.16 73.51 78.55 73.27C78.93 73.03 79.28 72.70 79.64 72.45C80.01 72.21 80.45 71.73 80.76 71.80C81.06 71.88 81.23 72.53 81.47 72.90C81.71 73.27 81.94 73.97 82.21 74.03C82.48 74.09 82.93 73.61 83.09 73.25C83.25 72.89 83.15 72.33 83.15 71.86C83.15 71.40 83.11 70.94 83.11 70.48C83.11 70.02 83.12 69.55 83.14 69.09C83.16 68.63 83.22 68.16 83.21 67.71C83.21 67.25 83.31 66.59 83.09 66.34C82.87 66.10 82.19 66.04 81.90 66.23C81.61 66.43 81.49 67.07 81.37 67.51C81.26 67.95 81.28 68.43 81.20 68.88C81.12 69.33 81.10 69.84 80.88 70.22C80.66 70.60 80.23 70.87 79.87 71.15C79.51 71.43 79.12 71.71 78.72 71.91C78.31 72.11 77.73 72.46 77.42 72.33C77.11 72.20 76.95 71.56 76.87 71.13C76.80 70.70 76.93 70.21 76.97 69.75C77.00 69.29 77.04 68.83 77.09 68.37C77.14 67.91 77.23 67.45 77.28 66.99C77.34 66.53 77.40 66.07 77.43 65.61C77.47 65.15 77.56 64.67 77.48 64.23C77.39 63.80 77.22 63.27 76.91 62.99C76.61 62.71 76.08 62.53 75.66 62.55Z M82.88 61.99C82.86 62.00 82.85 62.00 82.83 62.01C82.82 62.01 82.80 62.02 82.79 62.02C82.77 62.03 82.75 62.03 82.74 62.04C82.72 62.05 82.71 62.05 82.69 62.06C82.68 62.07 82.66 62.07 82.65 62.08C82.63 62.09 82.61 62.10 82.60 62.11C82.58 62.12 82.57 62.13 82.55 62.14C82.54 62.15 82.52 62.16 82.51 62.17C82.49 62.19 82.48 62.20 82.46 62.21C82.45 62.23 82.43 62.24 82.42 62.25C82.41 62.27 82.39 62.28 82.38 62.30C82.37 62.31 82.36 62.33 82.35 62.35C82.33 62.36 82.32 62.38 82.32 62.39C82.31 62.41 82.30 62.42 82.29 62.44C82.28 62.45 82.28 62.47 82.27 62.48C82.26 62.50 82.26 62.52 82.25 62.53C82.25 62.55 82.24 62.56 82.24 62.58C82.23 62.59 82.23 62.61 82.23 62.62C82.22 62.64 82.22 62.66 82.22 62.67C82.21 62.69 82.21 62.70 82.21 62.72C82.21 62.73 82.20 62.75 82.20 62.76C82.20 62.78 82.20 62.80 82.20 62.81C82.20 62.83 82.20 62.84 82.20 62.86C82.20 62.87 82.20 62.89 82.20 62.90C82.20 62.92 82.21 62.93 82.21 62.95C82.21 62.97 82.22 62.98 82.22 63.00C82.23 63.01 82.23 63.03 82.24 63.04C82.24 63.06 82.25 63.07 82.25 63.09C82.26 63.11 82.26 63.12 82.27 63.14C82.28 63.15 82.29 63.17 82.30 63.18C82.30 63.19 82.31 63.21 82.32 63.22C82.33 63.24 82.34 63.25 82.35 63.26C82.36 63.27 82.38 63.28 82.39 63.29C82.40 63.30 82.41 63.31 82.42 63.32C82.44 63.33 82.45 63.34 82.47 63.34C82.48 63.35 82.49 63.35 82.51 63.36C82.52 63.36 82.54 63.37 82.55 63.37C82.57 63.37 82.58 63.37 82.60 63.37C82.61 63.38 82.63 63.38 82.65 63.38C82.66 63.38 82.68 63.38 82.69 63.38C82.71 63.38 82.72 63.37 82.74 63.37C82.75 63.37 82.77 63.37 82.79 63.37C82.80 63.36 82.82 63.36 82.83 63.36C82.85 63.35 82.86 63.35 82.88 63.34C82.89 63.34 82.91 63.34 82.92 63.33C82.94 63.32 82.96 63.32 82.97 63.31C82.99 63.31 83.00 63.30 83.02 63.29C83.03 63.29 83.05 63.28 83.06 63.28C83.08 63.27 83.10 63.26 83.11 63.26C83.13 63.25 83.14 63.24 83.16 63.24C83.17 63.23 83.19 63.22 83.20 63.21C83.22 63.21 83.24 63.20 83.25 63.19C83.27 63.18 83.28 63.17 83.30 63.16C83.31 63.15 83.33 63.14 83.34 63.13C83.36 63.12 83.37 63.11 83.39 63.10C83.41 63.09 83.42 63.08 83.44 63.07C83.45 63.06 83.47 63.05 83.48 63.04C83.50 63.03 83.51 63.02 83.53 63.01C83.54 63.00 83.56 62.99 83.57 62.98C83.59 62.96 83.60 62.95 83.62 62.94C83.63 62.93 83.64 62.91 83.66 62.90C83.67 62.88 83.68 62.87 83.69 62.85C83.70 62.84 83.71 62.82 83.72 62.81C83.73 62.79 83.74 62.78 83.75 62.76C83.75 62.75 83.76 62.73 83.77 62.72C83.77 62.70 83.78 62.69 83.78 62.67C83.79 62.66 83.79 62.64 83.80 62.62C83.80 62.61 83.80 62.59 83.80 62.58C83.80 62.56 83.81 62.55 83.81 62.53C83.81 62.52 83.81 62.50 83.81 62.48C83.81 62.47 83.81 62.45 83.81 62.44C83.81 62.42 83.80 62.41 83.80 62.39C83.80 62.38 83.80 62.36 83.79 62.34C83.79 62.33 83.79 62.31 83.78 62.30C83.78 62.28 83.77 62.27 83.76 62.25C83.75 62.24 83.74 62.22 83.73 62.21C83.72 62.19 83.71 62.18 83.70 62.16C83.69 62.15 83.68 62.13 83.66 62.12C83.65 62.11 83.64 62.10 83.62 62.08C83.61 62.07 83.59 62.06 83.58 62.05C83.56 62.04 83.55 62.04 83.53 62.03C83.51 62.02 83.50 62.01 83.48 62.01C83.47 62.00 83.45 62.00 83.44 62.00C83.42 61.99 83.41 61.99 83.39 61.98C83.37 61.98 83.36 61.98 83.34 61.98C83.33 61.98 83.31 61.98 83.30 61.97C83.28 61.97 83.27 61.97 83.25 61.97C83.24 61.97 83.22 61.97 83.20 61.97C83.19 61.97 83.17 61.97 83.16 61.97C83.14 61.97 83.13 61.97 83.11 61.97C83.10 61.97 83.08 61.97 83.06 61.97C83.05 61.97 83.03 61.97 83.02 61.97C83.00 61.98 82.99 61.98 82.97 61.98C82.96 61.98 82.94 61.98 82.92 61.98C82.91 61.99 82.89 61.99 82.88 61.99Z M134.42 44.58C134.11 44.64 133.78 45.25 133.64 45.66C133.50 46.07 133.60 46.58 133.58 47.05C133.57 47.51 133.54 47.98 133.54 48.44C133.53 48.91 133.54 49.38 133.54 49.84C133.53 50.31 133.50 50.77 133.49 51.24C133.48 51.70 133.49 52.17 133.49 52.64C133.49 53.10 133.49 53.57 133.49 54.03C133.49 54.50 133.49 54.97 133.49 55.43C133.49 55.90 133.49 56.36 133.49 56.83C133.49 57.30 133.49 57.76 133.49 58.23C133.49 58.70 133.49 59.16 133.49 59.63C133.49 60.09 133.48 60.56 133.49 61.03C133.50 61.49 133.52 61.96 133.53 62.42C133.55 62.89 133.57 63.35 133.58 63.82C133.60 64.28 133.61 64.75 133.63 65.21C133.65 65.68 133.66 66.14 133.68 66.61C133.69 67.07 133.71 67.54 133.72 68.00C133.73 68.47 133.68 68.94 133.72 69.40C133.77 69.86 133.78 70.58 134.01 70.74C134.24 70.91 134.90 70.69 135.09 70.40C135.27 70.11 135.11 69.47 135.12 69.00C135.13 68.54 135.15 68.07 135.17 67.61C135.18 67.14 135.20 66.68 135.21 66.21C135.23 65.75 135.24 65.28 135.26 64.82C135.28 64.35 135.32 63.89 135.35 63.42C135.37 62.96 135.38 62.49 135.40 62.03C135.42 61.56 135.45 61.10 135.47 60.64C135.49 60.17 135.52 59.71 135.54 59.24C135.56 58.78 135.57 58.31 135.59 57.85C135.60 57.38 135.62 56.92 135.63 56.45C135.64 55.99 135.63 55.52 135.63 55.05C135.63 54.59 135.63 54.12 135.63 53.65C135.63 53.19 135.63 52.72 135.63 52.26C135.63 51.79 135.63 51.32 135.63 50.86C135.63 50.39 135.63 49.93 135.63 49.46C135.63 48.99 135.63 48.53 135.63 48.06C135.63 47.60 135.65 47.13 135.63 46.66C135.62 46.20 135.73 45.64 135.53 45.29C135.33 44.94 134.74 44.52 134.42 44.58Z M123.48 34.10C123.09 34.16 122.61 34.54 122.35 34.89C122.10 35.23 122.00 35.73 121.94 36.18C121.88 36.63 121.92 37.12 121.99 37.57C122.05 38.03 122.14 38.50 122.34 38.91C122.53 39.31 122.85 39.70 123.18 40.02C123.51 40.33 123.90 40.62 124.32 40.79C124.74 40.96 125.47 40.84 125.69 41.03C125.90 41.22 125.82 41.67 125.60 41.92C125.38 42.17 124.76 42.31 124.36 42.53C123.95 42.75 123.54 42.98 123.15 43.23C122.76 43.48 122.38 43.75 122.00 44.01C121.62 44.28 121.25 44.55 120.87 44.83C120.50 45.10 120.13 45.38 119.76 45.65C119.38 45.93 119.00 46.20 118.63 46.47C118.25 46.74 117.87 47.00 117.50 47.29C117.14 47.58 116.80 47.90 116.46 48.21C116.12 48.52 115.78 48.84 115.45 49.16C115.12 49.49 114.79 49.82 114.47 50.15C114.16 50.49 113.84 50.83 113.54 51.19C113.25 51.54 112.96 51.91 112.68 52.28C112.41 52.65 112.16 53.05 111.90 53.43C111.64 53.81 111.32 54.16 111.10 54.56C110.87 54.96 110.71 55.41 110.54 55.84C110.36 56.27 110.16 56.69 110.06 57.14C109.96 57.58 109.91 58.06 109.93 58.52C109.95 58.98 110.00 59.48 110.18 59.89C110.36 60.30 110.69 60.67 111.00 61.00C111.32 61.33 111.68 61.66 112.08 61.87C112.48 62.08 112.97 62.15 113.42 62.25C113.88 62.34 114.34 62.42 114.80 62.44C115.26 62.45 115.73 62.40 116.19 62.34C116.65 62.28 117.10 62.17 117.56 62.07C118.01 61.97 118.48 61.90 118.91 61.73C119.34 61.56 119.70 61.25 120.11 61.03C120.52 60.82 120.96 60.66 121.36 60.44C121.77 60.22 122.17 59.99 122.54 59.72C122.92 59.44 123.26 59.12 123.59 58.81C123.93 58.49 124.25 58.15 124.56 57.81C124.87 57.47 125.18 57.11 125.45 56.74C125.72 56.37 125.95 55.96 126.20 55.57C126.45 55.19 126.72 54.81 126.96 54.42C127.20 54.02 127.45 53.63 127.63 53.21C127.81 52.78 127.88 52.32 128.03 51.88C128.19 51.44 128.41 51.03 128.55 50.59C128.69 50.15 128.79 49.69 128.88 49.24C128.96 48.78 129.00 48.31 129.06 47.85C129.13 47.39 129.18 46.93 129.24 46.47C129.30 46.01 129.35 45.55 129.41 45.09C129.46 44.63 129.52 44.17 129.57 43.70C129.62 43.24 129.67 42.78 129.71 42.32C129.75 41.85 129.78 41.39 129.81 40.93C129.84 40.47 129.90 40.00 129.90 39.54C129.91 39.08 129.86 38.61 129.86 38.15C129.86 37.68 129.90 37.22 129.90 36.75C129.90 36.29 130.03 35.73 129.86 35.36C129.69 35.00 129.19 34.54 128.87 34.55C128.55 34.56 128.10 35.06 127.95 35.44C127.81 35.82 128.06 36.38 128.00 36.83C127.94 37.28 127.82 37.75 127.60 38.14C127.37 38.53 126.99 38.88 126.64 39.15C126.29 39.42 125.79 39.83 125.47 39.75C125.15 39.67 124.88 39.09 124.71 38.68C124.55 38.27 124.51 37.77 124.50 37.31C124.50 36.85 124.64 36.39 124.67 35.93C124.70 35.47 124.89 34.86 124.69 34.56C124.49 34.25 123.87 34.05 123.48 34.10Z M127.06 42.18C127.38 42.16 127.79 42.59 127.89 42.95C128.00 43.30 127.77 43.87 127.72 44.33C127.66 44.79 127.63 45.26 127.56 45.72C127.48 46.18 127.36 46.63 127.27 47.09C127.18 47.55 127.12 48.01 127.02 48.47C126.91 48.92 126.80 49.37 126.64 49.81C126.48 50.25 126.26 50.66 126.07 51.09C125.88 51.51 125.68 51.92 125.48 52.35C125.29 52.77 125.13 53.21 124.90 53.61C124.67 54.01 124.37 54.37 124.10 54.75C123.83 55.13 123.58 55.52 123.29 55.88C123.00 56.24 122.67 56.58 122.35 56.91C122.03 57.25 121.71 57.59 121.37 57.90C121.02 58.22 120.67 58.53 120.29 58.80C119.92 59.07 119.52 59.32 119.11 59.54C118.71 59.77 118.29 59.96 117.87 60.16C117.45 60.36 117.04 60.61 116.60 60.74C116.16 60.87 115.68 60.91 115.22 60.95C114.76 60.98 114.27 61.03 113.82 60.95C113.38 60.87 112.88 60.74 112.54 60.47C112.19 60.20 111.90 59.73 111.77 59.31C111.64 58.89 111.70 58.38 111.75 57.92C111.81 57.47 111.92 57.00 112.11 56.57C112.29 56.15 112.59 55.78 112.85 55.39C113.10 55.00 113.38 54.62 113.65 54.24C113.91 53.86 114.15 53.46 114.43 53.09C114.72 52.73 115.04 52.39 115.36 52.05C115.67 51.70 115.99 51.36 116.31 51.03C116.63 50.69 116.95 50.35 117.28 50.02C117.61 49.69 117.95 49.37 118.29 49.05C118.63 48.73 118.97 48.42 119.31 48.10C119.66 47.79 120.00 47.47 120.35 47.17C120.71 46.87 121.08 46.59 121.45 46.30C121.82 46.02 122.20 45.74 122.57 45.46C122.95 45.19 123.33 44.92 123.71 44.64C124.09 44.37 124.46 44.10 124.84 43.84C125.22 43.57 125.63 43.33 126.00 43.05C126.37 42.78 126.75 42.20 127.06 42.18Z M134.75 33.73C134.29 33.75 133.77 33.82 133.37 34.03C132.97 34.24 132.61 34.62 132.35 34.99C132.10 35.36 131.96 35.83 131.83 36.28C131.70 36.73 131.58 37.20 131.58 37.66C131.58 38.13 131.63 38.65 131.82 39.05C132.00 39.45 132.36 39.76 132.69 40.07C133.01 40.37 133.37 40.78 133.79 40.90C134.20 41.02 134.75 40.96 135.18 40.81C135.60 40.66 136.01 40.33 136.33 40.01C136.66 39.69 136.94 39.30 137.14 38.88C137.34 38.47 137.46 37.99 137.54 37.53C137.61 37.07 137.64 36.59 137.58 36.13C137.51 35.67 137.38 35.16 137.14 34.79C136.90 34.42 136.54 34.10 136.14 33.92C135.74 33.75 135.21 33.71 134.75 33.73Z M134.89 34.82C135.21 34.79 135.68 35.26 135.85 35.64C136.02 36.01 135.94 36.59 135.91 37.06C135.88 37.53 135.85 38.02 135.68 38.45C135.51 38.88 135.25 39.41 134.90 39.65C134.55 39.88 133.86 40.04 133.58 39.85C133.30 39.67 133.22 39.00 133.21 38.55C133.20 38.10 133.39 37.62 133.51 37.16C133.63 36.71 133.70 36.19 133.93 35.80C134.16 35.41 134.57 34.84 134.89 34.82Z M110.68 32.99C110.37 33.10 110.17 33.67 110.07 34.09C109.97 34.50 110.08 35.02 110.07 35.48C110.06 35.94 110.07 36.41 110.04 36.87C110.00 37.33 109.98 37.80 109.87 38.24C109.76 38.69 109.62 39.15 109.39 39.54C109.17 39.93 108.86 40.55 108.53 40.60C108.21 40.66 107.71 40.22 107.45 39.89C107.19 39.56 107.07 39.06 106.95 38.63C106.83 38.19 106.80 37.71 106.75 37.25C106.69 36.79 106.77 36.27 106.62 35.87C106.46 35.47 106.12 34.91 105.80 34.85C105.49 34.78 104.97 35.17 104.73 35.50C104.49 35.83 104.48 36.39 104.37 36.84C104.26 37.29 104.24 37.80 104.07 38.19C103.89 38.59 103.57 39.21 103.31 39.20C103.06 39.20 102.69 38.56 102.53 38.16C102.37 37.76 102.39 37.24 102.34 36.78C102.29 36.32 102.32 35.85 102.25 35.40C102.17 34.95 102.16 34.28 101.90 34.09C101.64 33.90 100.91 34.02 100.68 34.28C100.45 34.54 100.53 35.18 100.52 35.63C100.52 36.09 100.58 36.55 100.64 37.01C100.69 37.47 100.76 37.93 100.85 38.39C100.94 38.84 100.95 39.34 101.16 39.73C101.37 40.12 101.73 40.52 102.11 40.73C102.50 40.94 103.03 41.04 103.45 40.98C103.87 40.92 104.26 40.45 104.66 40.36C105.06 40.27 105.48 40.28 105.85 40.45C106.21 40.62 106.47 41.15 106.85 41.39C107.22 41.64 107.68 41.88 108.11 41.92C108.54 41.96 109.03 41.81 109.44 41.63C109.85 41.44 110.27 41.16 110.57 40.82C110.87 40.49 111.04 40.03 111.23 39.61C111.42 39.19 111.61 38.76 111.72 38.31C111.83 37.87 111.71 37.30 111.89 36.94C112.07 36.58 112.46 36.15 112.80 36.15C113.13 36.15 113.48 36.83 113.89 36.92C114.30 37.01 114.89 36.81 115.26 36.71C115.64 36.60 116.22 36.39 116.14 36.29C116.05 36.19 115.21 36.23 114.76 36.13C114.32 36.03 113.81 35.94 113.46 35.68C113.11 35.42 112.91 34.94 112.65 34.57C112.39 34.19 112.23 33.67 111.90 33.41C111.58 33.14 110.98 32.87 110.68 32.99Z M167.99 32.94C167.54 32.99 167.08 33.12 166.66 33.30C166.24 33.48 165.83 33.73 165.49 34.02C165.14 34.32 164.83 34.68 164.59 35.06C164.35 35.44 164.15 35.86 164.05 36.30C163.95 36.74 164.11 37.27 163.97 37.68C163.84 38.10 163.48 38.43 163.23 38.81C162.98 39.19 162.76 39.61 162.47 39.95C162.18 40.30 161.83 40.82 161.47 40.89C161.12 40.96 160.52 40.68 160.36 40.36C160.20 40.04 160.45 39.45 160.50 38.99C160.54 38.53 160.65 38.06 160.62 37.61C160.60 37.16 160.61 36.58 160.36 36.29C160.11 36.00 159.55 35.98 159.13 35.86C158.71 35.74 158.04 35.85 157.85 35.58C157.65 35.31 158.06 34.65 157.99 34.24C157.92 33.84 157.72 33.22 157.43 33.14C157.15 33.05 156.54 33.41 156.28 33.73C156.02 34.05 155.90 34.60 155.89 35.04C155.87 35.49 155.95 36.06 156.21 36.37C156.46 36.68 157.01 36.77 157.43 36.92C157.85 37.07 158.51 37.00 158.72 37.28C158.94 37.56 158.75 38.15 158.73 38.60C158.71 39.05 158.59 39.52 158.59 39.98C158.59 40.44 158.55 40.94 158.71 41.35C158.87 41.75 159.19 42.25 159.55 42.42C159.91 42.58 160.45 42.45 160.88 42.34C161.31 42.23 161.76 42.02 162.13 41.76C162.49 41.50 162.78 41.11 163.08 40.76C163.38 40.41 163.61 39.89 163.91 39.65C164.20 39.42 164.55 39.22 164.86 39.34C165.17 39.46 165.41 40.10 165.77 40.36C166.13 40.63 166.57 40.84 167.01 40.94C167.45 41.05 167.93 41.03 168.39 41.00C168.85 40.98 169.32 40.91 169.75 40.77C170.19 40.63 170.57 40.33 170.98 40.15C171.40 39.97 171.86 39.87 172.26 39.67C172.67 39.48 173.06 39.25 173.43 38.99C173.79 38.73 174.22 38.43 174.47 38.11C174.72 37.79 175.04 37.16 174.93 37.07C174.81 36.98 174.16 37.39 173.76 37.57C173.36 37.76 172.92 37.95 172.52 38.16C172.12 38.38 171.77 38.67 171.36 38.87C170.96 39.07 170.51 39.22 170.08 39.37C169.65 39.52 169.21 39.73 168.77 39.76C168.32 39.80 167.82 39.75 167.41 39.57C167.00 39.40 166.58 39.07 166.33 38.71C166.09 38.35 165.91 37.83 165.94 37.43C165.98 37.02 166.24 36.38 166.54 36.30C166.83 36.22 167.28 36.87 167.69 36.94C168.11 37.02 168.63 36.89 169.05 36.73C169.47 36.57 169.88 36.28 170.21 35.97C170.53 35.67 170.95 35.28 171.01 34.90C171.07 34.51 170.85 33.97 170.58 33.66C170.30 33.34 169.80 33.13 169.37 33.01C168.94 32.89 168.44 32.89 167.99 32.94Z M168.13 34.21C168.15 34.21 168.16 34.20 168.18 34.20C168.19 34.19 168.21 34.19 168.22 34.19C168.24 34.19 168.26 34.18 168.27 34.18C168.29 34.18 168.30 34.18 168.32 34.18C168.33 34.18 168.35 34.18 168.36 34.18C168.38 34.18 168.40 34.18 168.41 34.18C168.43 34.18 168.44 34.18 168.46 34.18C168.47 34.18 168.49 34.18 168.50 34.18C168.52 34.18 168.53 34.19 168.55 34.19C168.57 34.19 168.58 34.19 168.60 34.20C168.61 34.20 168.63 34.21 168.64 34.21C168.66 34.22 168.67 34.22 168.69 34.23C168.71 34.24 168.72 34.24 168.74 34.25C168.75 34.26 168.77 34.27 168.78 34.28C168.79 34.28 168.81 34.29 168.82 34.30C168.84 34.32 168.85 34.33 168.86 34.34C168.87 34.35 168.89 34.36 168.90 34.37C168.91 34.39 168.92 34.40 168.93 34.41C168.94 34.43 168.94 34.44 168.95 34.46C168.96 34.47 168.97 34.49 168.97 34.50C168.98 34.52 168.99 34.53 168.99 34.55C168.99 34.56 169.00 34.58 169.00 34.59C169.00 34.61 169.01 34.63 169.01 34.64C169.01 34.66 169.01 34.67 169.01 34.69C169.01 34.70 169.00 34.72 169.00 34.73C169.00 34.75 169.00 34.77 168.99 34.78C168.99 34.80 168.98 34.81 168.98 34.83C168.97 34.84 168.97 34.86 168.96 34.87C168.96 34.89 168.95 34.91 168.94 34.92C168.93 34.94 168.93 34.95 168.92 34.97C168.91 34.98 168.90 35.00 168.89 35.01C168.88 35.03 168.87 35.04 168.87 35.06C168.86 35.08 168.85 35.09 168.84 35.11C168.83 35.12 168.82 35.14 168.80 35.15C168.79 35.17 168.78 35.18 168.77 35.20C168.76 35.22 168.74 35.23 168.73 35.25C168.72 35.26 168.70 35.28 168.69 35.29C168.67 35.31 168.66 35.32 168.64 35.34C168.63 35.36 168.61 35.37 168.60 35.39C168.58 35.40 168.57 35.42 168.55 35.43C168.53 35.45 168.52 35.46 168.50 35.48C168.49 35.49 168.47 35.51 168.46 35.52C168.44 35.53 168.43 35.55 168.41 35.56C168.40 35.57 168.38 35.58 168.36 35.59C168.35 35.60 168.33 35.61 168.32 35.62C168.30 35.63 168.29 35.64 168.27 35.65C168.26 35.66 168.24 35.67 168.22 35.68C168.21 35.68 168.19 35.69 168.18 35.70C168.16 35.70 168.15 35.71 168.13 35.72C168.12 35.72 168.10 35.73 168.08 35.74C168.07 35.74 168.05 35.75 168.04 35.75C168.02 35.76 168.01 35.76 167.99 35.76C167.98 35.77 167.96 35.77 167.94 35.78C167.93 35.78 167.91 35.78 167.90 35.79C167.88 35.79 167.87 35.79 167.85 35.79C167.84 35.80 167.82 35.80 167.81 35.80C167.79 35.80 167.77 35.80 167.76 35.80C167.74 35.80 167.73 35.80 167.71 35.80C167.70 35.80 167.68 35.80 167.67 35.80C167.65 35.80 167.63 35.80 167.62 35.80C167.60 35.80 167.59 35.80 167.57 35.80C167.56 35.80 167.54 35.80 167.53 35.80C167.51 35.80 167.49 35.79 167.48 35.79C167.46 35.79 167.45 35.78 167.43 35.78C167.42 35.77 167.40 35.76 167.39 35.76C167.37 35.75 167.36 35.74 167.34 35.73C167.33 35.72 167.32 35.71 167.30 35.70C167.29 35.69 167.28 35.67 167.27 35.66C167.26 35.65 167.25 35.63 167.24 35.62C167.23 35.60 167.23 35.59 167.22 35.57C167.22 35.56 167.21 35.54 167.21 35.53C167.21 35.51 167.20 35.49 167.20 35.48C167.20 35.46 167.20 35.45 167.20 35.43C167.20 35.42 167.20 35.40 167.20 35.39C167.20 35.37 167.20 35.36 167.21 35.34C167.21 35.32 167.21 35.31 167.21 35.29C167.21 35.28 167.22 35.26 167.22 35.25C167.23 35.23 167.23 35.22 167.23 35.20C167.24 35.18 167.24 35.17 167.25 35.15C167.25 35.14 167.26 35.12 167.27 35.11C167.27 35.09 167.28 35.08 167.29 35.06C167.29 35.04 167.30 35.03 167.31 35.01C167.31 35.00 167.32 34.98 167.33 34.97C167.34 34.95 167.35 34.94 167.35 34.92C167.36 34.91 167.37 34.89 167.38 34.87C167.39 34.86 167.40 34.84 167.41 34.83C167.42 34.81 167.43 34.80 167.44 34.78C167.45 34.77 167.46 34.75 167.47 34.73C167.48 34.72 167.49 34.70 167.50 34.69C167.51 34.67 167.53 34.66 167.54 34.64C167.55 34.63 167.56 34.61 167.58 34.59C167.59 34.58 167.61 34.56 167.62 34.55C167.64 34.53 167.65 34.52 167.67 34.50C167.68 34.49 167.70 34.47 167.71 34.46C167.73 34.45 167.74 34.43 167.76 34.42C167.77 34.41 167.79 34.40 167.81 34.38C167.82 34.37 167.84 34.36 167.85 34.35C167.87 34.34 167.88 34.33 167.90 34.32C167.91 34.31 167.93 34.30 167.94 34.29C167.96 34.28 167.98 34.27 167.99 34.27C168.01 34.26 168.02 34.25 168.04 34.24C168.05 34.24 168.07 34.23 168.08 34.23C168.10 34.22 168.12 34.21 168.13 34.21Z M56.80 32.94C56.36 32.98 55.80 33.11 55.49 33.40C55.18 33.69 54.97 34.25 54.94 34.69C54.92 35.13 55.13 35.62 55.33 36.04C55.53 36.45 55.91 36.80 56.15 37.20C56.39 37.60 56.82 38.06 56.76 38.42C56.69 38.79 56.01 39.01 55.74 39.38C55.47 39.75 55.13 40.23 55.13 40.64C55.13 41.05 55.43 41.54 55.76 41.82C56.08 42.11 56.63 42.28 57.08 42.32C57.53 42.37 58.09 42.31 58.47 42.11C58.86 41.90 59.21 41.49 59.38 41.09C59.56 40.68 59.62 40.14 59.55 39.69C59.48 39.25 59.21 38.80 58.98 38.39C58.75 37.98 58.44 37.62 58.16 37.23C57.88 36.85 57.57 36.49 57.32 36.09C57.06 35.69 56.59 35.20 56.63 34.85C56.67 34.51 57.29 34.29 57.55 34.01C57.81 33.73 58.31 33.35 58.18 33.17C58.06 32.99 57.25 32.90 56.80 32.94Z M57.27 39.82C57.29 39.81 57.30 39.80 57.32 39.80C57.33 39.79 57.35 39.79 57.36 39.78C57.38 39.78 57.39 39.77 57.41 39.77C57.43 39.77 57.44 39.77 57.46 39.77C57.47 39.77 57.49 39.77 57.50 39.77C57.52 39.77 57.53 39.77 57.55 39.78C57.56 39.78 57.58 39.79 57.59 39.79C57.61 39.80 57.63 39.80 57.64 39.81C57.65 39.82 57.67 39.83 57.68 39.84C57.70 39.85 57.71 39.86 57.72 39.87C57.74 39.88 57.75 39.90 57.76 39.91C57.77 39.92 57.78 39.94 57.79 39.95C57.80 39.97 57.81 39.98 57.82 40.00C57.83 40.01 57.84 40.03 57.85 40.04C57.85 40.06 57.86 40.07 57.87 40.09C57.87 40.10 57.88 40.12 57.89 40.14C57.89 40.15 57.90 40.17 57.90 40.18C57.90 40.20 57.91 40.21 57.91 40.23C57.91 40.24 57.91 40.26 57.92 40.28C57.92 40.29 57.92 40.31 57.92 40.32C57.92 40.34 57.92 40.35 57.92 40.37C57.92 40.38 57.92 40.40 57.92 40.41C57.91 40.43 57.91 40.45 57.91 40.46C57.91 40.48 57.90 40.49 57.90 40.51C57.90 40.52 57.89 40.54 57.89 40.55C57.88 40.57 57.88 40.59 57.87 40.60C57.87 40.62 57.86 40.63 57.86 40.65C57.85 40.66 57.84 40.68 57.84 40.69C57.83 40.71 57.82 40.73 57.81 40.74C57.80 40.76 57.80 40.77 57.79 40.79C57.78 40.80 57.77 40.82 57.76 40.83C57.75 40.85 57.73 40.86 57.72 40.88C57.71 40.89 57.70 40.91 57.68 40.92C57.67 40.94 57.65 40.95 57.64 40.97C57.63 40.98 57.61 40.99 57.59 41.01C57.58 41.02 57.56 41.03 57.55 41.04C57.53 41.05 57.52 41.06 57.50 41.06C57.49 41.07 57.47 41.08 57.46 41.08C57.44 41.09 57.43 41.09 57.41 41.10C57.39 41.10 57.38 41.10 57.36 41.10C57.35 41.10 57.33 41.10 57.32 41.10C57.30 41.09 57.29 41.09 57.27 41.08C57.25 41.08 57.24 41.07 57.22 41.07C57.21 41.06 57.19 41.05 57.18 41.04C57.16 41.04 57.15 41.03 57.13 41.02C57.12 41.01 57.10 41.00 57.09 40.99C57.07 40.97 57.06 40.96 57.04 40.95C57.03 40.94 57.02 40.93 57.00 40.91C56.99 40.90 56.98 40.89 56.97 40.87C56.95 40.86 56.94 40.85 56.93 40.83C56.92 40.82 56.91 40.80 56.90 40.79C56.89 40.77 56.88 40.76 56.87 40.74C56.86 40.73 56.86 40.71 56.85 40.69C56.84 40.68 56.84 40.66 56.83 40.65C56.83 40.63 56.82 40.62 56.82 40.60C56.82 40.59 56.81 40.57 56.81 40.55C56.81 40.54 56.81 40.52 56.81 40.51C56.81 40.49 56.81 40.48 56.81 40.46C56.81 40.45 56.81 40.43 56.81 40.41C56.81 40.40 56.82 40.38 56.82 40.37C56.82 40.35 56.83 40.34 56.83 40.32C56.84 40.31 56.84 40.29 56.85 40.28C56.86 40.26 56.86 40.24 56.87 40.23C56.88 40.21 56.89 40.20 56.90 40.18C56.91 40.17 56.92 40.15 56.93 40.14C56.94 40.12 56.95 40.10 56.97 40.09C56.98 40.07 56.99 40.06 57.00 40.04C57.02 40.03 57.03 40.01 57.04 40.00C57.06 39.98 57.07 39.97 57.09 39.96C57.10 39.94 57.12 39.93 57.13 39.92C57.15 39.90 57.16 39.89 57.18 39.88C57.19 39.87 57.21 39.86 57.22 39.85C57.24 39.84 57.25 39.83 57.27 39.82Z M52.75 32.66C52.44 32.68 52.07 33.19 51.84 33.56C51.61 33.93 51.53 34.43 51.40 34.88C51.27 35.32 51.18 35.78 51.06 36.22C50.94 36.67 50.89 37.14 50.70 37.55C50.50 37.95 50.22 38.47 49.88 38.66C49.54 38.85 48.95 38.90 48.65 38.71C48.34 38.51 48.18 37.92 48.07 37.48C47.96 37.05 47.96 36.56 47.96 36.10C47.95 35.64 48.11 35.16 48.05 34.72C47.99 34.29 47.85 33.58 47.59 33.48C47.33 33.38 46.73 33.80 46.49 34.13C46.24 34.46 46.17 34.99 46.11 35.44C46.04 35.89 46.06 36.37 46.10 36.83C46.14 37.29 46.19 37.76 46.35 38.19C46.50 38.62 46.71 39.07 47.00 39.41C47.29 39.74 47.69 40.05 48.10 40.19C48.50 40.33 49.02 40.34 49.44 40.24C49.87 40.15 50.30 39.89 50.65 39.61C50.99 39.33 51.23 38.55 51.49 38.57C51.74 38.58 51.92 39.31 52.16 39.69C52.40 40.06 52.62 40.71 52.93 40.82C53.23 40.93 53.84 40.67 53.99 40.36C54.14 40.06 53.89 39.45 53.85 38.99C53.80 38.53 53.75 38.07 53.73 37.61C53.71 37.15 53.73 36.69 53.73 36.22C53.73 35.76 53.73 35.30 53.73 34.84C53.73 34.38 53.89 33.82 53.72 33.46C53.56 33.09 53.07 32.64 52.75 32.66Z M145.46 32.58C145.15 32.56 144.66 33.07 144.43 33.44C144.20 33.80 144.16 34.30 144.06 34.75C143.96 35.19 143.98 35.68 143.85 36.11C143.71 36.54 143.45 36.94 143.25 37.35C143.04 37.76 142.94 38.32 142.63 38.57C142.31 38.83 141.68 39.01 141.37 38.86C141.07 38.71 140.92 38.10 140.80 37.68C140.68 37.25 140.68 36.76 140.66 36.31C140.64 35.85 140.76 35.37 140.71 34.94C140.65 34.50 140.59 33.85 140.33 33.69C140.07 33.53 139.38 33.70 139.13 33.97C138.88 34.24 138.89 34.85 138.84 35.31C138.80 35.76 138.83 36.23 138.86 36.68C138.88 37.14 138.89 37.62 139.01 38.05C139.13 38.49 139.30 38.94 139.57 39.29C139.84 39.63 140.22 39.98 140.62 40.14C141.01 40.31 141.53 40.36 141.95 40.27C142.38 40.19 142.78 39.88 143.16 39.64C143.54 39.39 143.96 38.77 144.25 38.80C144.53 38.83 144.61 39.49 144.85 39.83C145.09 40.17 145.37 40.77 145.70 40.85C146.02 40.93 146.68 40.64 146.80 40.33C146.92 40.03 146.53 39.46 146.43 39.02C146.33 38.57 146.24 38.12 146.20 37.66C146.17 37.21 146.21 36.74 146.22 36.28C146.23 35.82 146.23 35.36 146.25 34.91C146.26 34.45 146.43 33.93 146.30 33.54C146.16 33.15 145.77 32.59 145.46 32.58Z M82.69 32.57C82.26 32.54 81.75 32.72 81.34 32.92C80.93 33.12 80.57 33.45 80.23 33.76C79.89 34.08 79.65 34.65 79.31 34.82C78.98 34.99 78.56 34.90 78.20 34.79C77.83 34.67 77.39 34.05 77.13 34.14C76.88 34.24 76.71 34.92 76.64 35.35C76.56 35.79 76.67 36.28 76.69 36.75C76.70 37.22 76.72 37.68 76.73 38.15C76.75 38.61 76.72 39.09 76.78 39.54C76.84 40.00 76.84 40.68 77.10 40.85C77.36 41.02 78.03 40.84 78.33 40.58C78.64 40.33 78.78 39.77 78.92 39.33C79.06 38.89 79.04 38.39 79.20 37.96C79.35 37.52 79.62 37.13 79.83 36.72C80.04 36.30 80.19 35.84 80.47 35.47C80.74 35.11 81.16 34.52 81.47 34.52C81.77 34.53 82.08 35.12 82.30 35.50C82.52 35.89 82.63 36.38 82.78 36.82C82.93 37.26 82.99 37.75 83.21 38.15C83.43 38.55 83.77 38.91 84.10 39.22C84.44 39.53 84.82 39.80 85.23 39.99C85.65 40.18 86.12 40.32 86.58 40.36C87.04 40.41 87.51 40.33 87.97 40.26C88.43 40.19 88.91 40.12 89.34 39.97C89.78 39.82 90.17 39.56 90.59 39.36C91.00 39.16 91.43 38.96 91.84 38.75C92.24 38.53 92.70 38.03 93.02 38.09C93.35 38.16 93.51 38.80 93.79 39.14C94.06 39.48 94.34 39.84 94.67 40.13C95.00 40.43 95.37 40.82 95.79 40.93C96.20 41.03 96.74 40.93 97.15 40.76C97.57 40.59 97.97 40.26 98.28 39.94C98.60 39.61 98.87 39.22 99.06 38.81C99.25 38.40 99.36 37.91 99.41 37.46C99.47 37.00 99.46 36.52 99.38 36.06C99.31 35.61 99.21 35.09 98.97 34.73C98.73 34.37 98.34 34.06 97.94 33.90C97.54 33.73 97.02 33.73 96.56 33.76C96.11 33.78 95.59 33.85 95.20 34.06C94.81 34.28 94.52 34.69 94.21 35.04C93.90 35.38 93.67 35.80 93.35 36.13C93.03 36.46 92.66 36.74 92.30 37.02C91.94 37.31 91.60 37.63 91.20 37.84C90.79 38.06 90.32 38.17 89.88 38.32C89.44 38.46 89.00 38.61 88.55 38.69C88.09 38.78 87.58 38.91 87.15 38.82C86.73 38.73 86.30 38.46 85.98 38.15C85.66 37.84 85.43 37.38 85.26 36.96C85.09 36.53 85.06 36.04 84.97 35.59C84.89 35.13 84.91 34.63 84.74 34.21C84.56 33.79 84.29 33.34 83.95 33.06C83.61 32.79 83.13 32.59 82.69 32.57Z M96.71 34.82C97.02 34.77 97.54 35.24 97.72 35.61C97.90 35.98 97.80 36.57 97.78 37.04C97.75 37.51 97.72 38.00 97.56 38.43C97.39 38.86 97.14 39.38 96.79 39.63C96.44 39.87 95.75 40.07 95.47 39.90C95.19 39.73 95.15 39.05 95.12 38.60C95.10 38.15 95.21 37.65 95.33 37.19C95.44 36.74 95.59 36.25 95.82 35.86C96.05 35.46 96.39 34.86 96.71 34.82Z M152.39 24.14C152.20 24.18 152.00 24.60 151.93 24.89C151.86 25.18 151.96 25.54 151.99 25.86C152.02 26.19 151.98 26.57 152.09 26.83C152.20 27.09 152.46 27.45 152.64 27.41C152.81 27.36 153.01 26.87 153.12 26.58C153.24 26.28 153.33 25.95 153.32 25.63C153.32 25.32 153.26 24.94 153.10 24.69C152.95 24.44 152.59 24.11 152.39 24.14Z M30.31 22.00C30.06 22.01 29.66 22.61 29.50 23.01C29.34 23.41 29.38 23.93 29.33 24.39C29.28 24.85 29.24 25.32 29.21 25.78C29.18 26.24 29.29 26.76 29.15 27.17C29.01 27.57 28.73 28.04 28.38 28.22C28.02 28.39 27.26 28.11 27.00 28.22C26.74 28.32 26.63 28.76 26.83 28.85C27.03 28.94 27.83 28.58 28.19 28.73C28.56 28.88 28.87 29.36 29.01 29.76C29.15 30.16 29.02 30.69 29.01 31.15C29.00 31.62 28.97 32.08 28.96 32.54C28.95 33.01 28.97 33.47 28.96 33.94C28.95 34.40 28.94 34.87 28.92 35.33C28.91 35.79 29.05 36.30 28.88 36.70C28.71 37.09 28.29 37.44 27.92 37.70C27.55 37.95 27.05 38.02 26.65 38.22C26.24 38.41 25.88 38.69 25.47 38.89C25.07 39.09 24.64 39.28 24.20 39.42C23.77 39.57 23.32 39.75 22.87 39.76C22.43 39.78 21.91 39.72 21.52 39.53C21.12 39.33 20.72 38.97 20.48 38.59C20.25 38.22 20.04 37.65 20.11 37.29C20.19 36.94 20.58 36.53 20.93 36.46C21.28 36.40 21.78 36.91 22.21 36.92C22.64 36.94 23.11 36.76 23.52 36.57C23.93 36.38 24.39 36.12 24.67 35.79C24.96 35.45 25.26 34.94 25.23 34.55C25.21 34.15 24.84 33.67 24.50 33.40C24.16 33.14 23.65 33.02 23.20 32.96C22.76 32.89 22.26 32.90 21.82 33.00C21.37 33.09 20.95 33.31 20.54 33.51C20.13 33.72 19.68 33.93 19.35 34.25C19.03 34.56 18.79 35.00 18.60 35.41C18.40 35.82 18.25 36.28 18.19 36.73C18.14 37.18 18.17 37.67 18.29 38.11C18.41 38.55 18.65 38.99 18.92 39.35C19.19 39.72 19.54 40.04 19.91 40.30C20.27 40.56 20.69 40.81 21.12 40.93C21.56 41.05 22.05 41.04 22.51 41.02C22.97 41.00 23.45 40.94 23.88 40.80C24.32 40.66 24.70 40.35 25.12 40.17C25.54 39.99 26.00 39.90 26.41 39.70C26.82 39.50 27.21 39.23 27.59 38.99C27.97 38.75 28.40 38.19 28.68 38.27C28.95 38.35 29.07 39.05 29.23 39.48C29.39 39.90 29.49 40.37 29.62 40.81C29.76 41.26 29.81 41.77 30.04 42.14C30.28 42.52 30.79 43.04 31.04 43.07C31.30 43.11 31.56 42.69 31.57 42.36C31.58 42.02 31.18 41.51 31.07 41.07C30.97 40.62 30.96 40.14 30.92 39.68C30.87 39.22 30.85 38.76 30.82 38.29C30.79 37.83 30.75 37.37 30.73 36.90C30.71 36.44 30.72 35.97 30.73 35.51C30.74 35.05 30.76 34.58 30.78 34.12C30.79 33.65 30.81 33.19 30.82 32.73C30.83 32.26 30.81 31.80 30.82 31.33C30.83 30.87 30.76 30.36 30.89 29.94C31.02 29.52 31.25 28.98 31.59 28.83C31.93 28.68 32.48 29.00 32.93 29.03C33.39 29.07 34.08 29.20 34.32 29.05C34.56 28.89 34.62 28.26 34.40 28.11C34.18 27.95 33.47 28.11 33.01 28.12C32.55 28.14 31.97 28.38 31.62 28.21C31.27 28.05 31.03 27.55 30.92 27.14C30.81 26.74 30.95 26.22 30.97 25.75C30.98 25.29 31.00 24.83 31.01 24.36C31.02 23.90 31.13 23.36 31.01 22.97C30.89 22.58 30.56 21.99 30.31 22.00Z M22.26 34.26C22.27 34.25 22.29 34.25 22.30 34.24C22.32 34.24 22.33 34.24 22.35 34.23C22.36 34.23 22.38 34.23 22.40 34.23C22.41 34.23 22.43 34.23 22.44 34.22C22.46 34.22 22.47 34.22 22.49 34.22C22.50 34.22 22.52 34.22 22.54 34.22C22.55 34.22 22.57 34.22 22.58 34.22C22.60 34.22 22.61 34.22 22.63 34.22C22.64 34.23 22.66 34.23 22.68 34.23C22.69 34.23 22.71 34.23 22.72 34.23C22.74 34.24 22.75 34.24 22.77 34.24C22.78 34.25 22.80 34.25 22.81 34.26C22.83 34.26 22.85 34.27 22.86 34.28C22.88 34.28 22.89 34.29 22.91 34.30C22.92 34.30 22.94 34.31 22.95 34.32C22.97 34.33 22.98 34.34 23.00 34.35C23.01 34.36 23.02 34.37 23.04 34.38C23.05 34.40 23.06 34.41 23.07 34.42C23.08 34.43 23.09 34.45 23.10 34.46C23.11 34.47 23.12 34.49 23.13 34.50C23.14 34.52 23.15 34.53 23.15 34.55C23.16 34.56 23.16 34.58 23.17 34.59C23.17 34.61 23.17 34.63 23.18 34.64C23.18 34.66 23.18 34.67 23.18 34.69C23.18 34.70 23.18 34.72 23.17 34.73C23.17 34.75 23.17 34.77 23.17 34.78C23.16 34.80 23.16 34.81 23.15 34.83C23.15 34.84 23.14 34.86 23.14 34.87C23.13 34.89 23.13 34.91 23.12 34.92C23.11 34.94 23.11 34.95 23.10 34.97C23.09 34.98 23.09 35.00 23.08 35.01C23.07 35.03 23.06 35.04 23.05 35.06C23.05 35.08 23.04 35.09 23.03 35.11C23.02 35.12 23.01 35.14 23.00 35.15C22.99 35.17 22.98 35.18 22.97 35.20C22.96 35.22 22.94 35.23 22.93 35.25C22.92 35.26 22.91 35.28 22.90 35.29C22.88 35.31 22.87 35.32 22.86 35.34C22.84 35.35 22.83 35.37 22.81 35.38C22.80 35.40 22.78 35.41 22.77 35.43C22.75 35.44 22.74 35.45 22.72 35.47C22.71 35.48 22.69 35.49 22.68 35.50C22.66 35.52 22.64 35.53 22.63 35.54C22.61 35.55 22.60 35.56 22.58 35.57C22.57 35.58 22.55 35.59 22.54 35.60C22.52 35.61 22.50 35.62 22.49 35.63C22.47 35.63 22.46 35.64 22.44 35.65C22.43 35.66 22.41 35.67 22.40 35.67C22.38 35.68 22.36 35.69 22.35 35.69C22.33 35.70 22.32 35.70 22.30 35.71C22.29 35.71 22.27 35.72 22.26 35.72C22.24 35.73 22.23 35.73 22.21 35.74C22.19 35.74 22.18 35.74 22.16 35.75C22.15 35.75 22.13 35.75 22.12 35.75C22.10 35.75 22.09 35.76 22.07 35.76C22.05 35.76 22.04 35.76 22.02 35.76C22.01 35.76 21.99 35.76 21.98 35.76C21.96 35.76 21.95 35.76 21.93 35.76C21.91 35.76 21.90 35.76 21.88 35.76C21.87 35.76 21.85 35.75 21.84 35.75C21.82 35.75 21.81 35.75 21.79 35.75C21.77 35.74 21.76 35.74 21.74 35.74C21.73 35.73 21.71 35.73 21.70 35.72C21.68 35.72 21.67 35.71 21.65 35.70C21.64 35.70 21.62 35.69 21.61 35.68C21.60 35.67 21.58 35.66 21.57 35.65C21.56 35.64 21.55 35.62 21.54 35.61C21.53 35.60 21.52 35.58 21.51 35.57C21.51 35.55 21.50 35.54 21.49 35.52C21.49 35.51 21.48 35.49 21.48 35.48C21.48 35.46 21.47 35.45 21.47 35.43C21.47 35.42 21.47 35.40 21.47 35.39C21.47 35.37 21.47 35.36 21.47 35.34C21.47 35.32 21.47 35.31 21.47 35.29C21.47 35.28 21.47 35.26 21.47 35.25C21.47 35.23 21.47 35.22 21.48 35.20C21.48 35.18 21.48 35.17 21.49 35.15C21.49 35.14 21.49 35.12 21.50 35.11C21.50 35.09 21.51 35.08 21.51 35.06C21.52 35.04 21.52 35.03 21.53 35.01C21.54 35.00 21.54 34.98 21.55 34.97C21.56 34.95 21.56 34.94 21.57 34.92C21.58 34.91 21.59 34.89 21.59 34.87C21.60 34.86 21.61 34.84 21.62 34.83C21.63 34.81 21.64 34.80 21.64 34.78C21.65 34.77 21.66 34.75 21.67 34.73C21.68 34.72 21.69 34.70 21.71 34.69C21.72 34.67 21.73 34.66 21.74 34.64C21.75 34.63 21.76 34.61 21.77 34.60C21.79 34.58 21.80 34.57 21.81 34.55C21.82 34.54 21.84 34.53 21.85 34.51C21.86 34.50 21.88 34.49 21.89 34.47C21.90 34.46 21.92 34.45 21.93 34.44C21.95 34.43 21.96 34.42 21.98 34.40C21.99 34.39 22.01 34.38 22.02 34.37C22.04 34.36 22.05 34.35 22.07 34.34C22.09 34.33 22.10 34.32 22.12 34.31C22.13 34.31 22.15 34.30 22.16 34.29C22.18 34.28 22.19 34.28 22.21 34.27C22.23 34.27 22.24 34.26 22.26 34.26Z M73.52 9.80C73.08 9.84 72.61 10.01 72.23 10.24C71.84 10.47 71.53 10.85 71.23 11.19C70.92 11.54 70.65 11.92 70.42 12.32C70.20 12.72 70.06 13.16 69.86 13.58C69.67 14.00 69.40 14.39 69.25 14.82C69.10 15.25 69.05 15.72 68.94 16.17C68.82 16.62 68.68 17.06 68.57 17.50C68.45 17.95 68.31 18.39 68.22 18.85C68.14 19.30 68.09 19.76 68.04 20.22C67.99 20.68 67.97 21.14 67.92 21.60C67.87 22.06 67.80 22.51 67.74 22.97C67.68 23.43 67.63 23.89 67.58 24.35C67.53 24.81 67.50 25.27 67.46 25.73C67.43 26.19 67.40 26.65 67.37 27.11C67.34 27.57 67.30 28.03 67.28 28.49C67.26 28.95 67.26 29.41 67.23 29.87C67.21 30.33 67.16 30.79 67.14 31.25C67.12 31.71 67.11 32.17 67.09 32.63C67.08 33.10 67.06 33.56 67.05 34.02C67.04 34.48 67.05 34.94 67.05 35.40C67.05 35.87 67.05 36.33 67.05 36.79C67.05 37.25 67.05 37.71 67.05 38.18C67.05 38.64 67.06 39.10 67.05 39.56C67.04 40.02 66.93 40.51 67.00 40.95C67.07 41.38 67.16 42.02 67.45 42.19C67.74 42.36 68.48 42.22 68.74 41.96C69.00 41.70 68.96 41.08 69.00 40.63C69.04 40.18 68.82 39.52 68.97 39.26C69.12 38.99 69.62 38.88 69.90 39.04C70.18 39.19 70.37 39.83 70.64 40.20C70.92 40.57 71.22 40.93 71.55 41.24C71.89 41.55 72.25 41.86 72.65 42.06C73.06 42.26 73.57 42.52 73.96 42.46C74.36 42.40 75.00 41.99 75.04 41.72C75.08 41.45 74.53 41.10 74.19 40.84C73.85 40.58 73.38 40.39 73.00 40.15C72.61 39.90 72.23 39.65 71.89 39.35C71.55 39.05 71.05 38.70 70.96 38.34C70.87 37.99 71.07 37.51 71.34 37.22C71.60 36.92 72.17 36.83 72.55 36.58C72.93 36.33 73.32 36.05 73.64 35.72C73.95 35.39 74.25 34.99 74.43 34.59C74.60 34.18 74.84 33.59 74.67 33.31C74.49 33.02 73.83 32.90 73.40 32.87C72.96 32.85 72.43 33.14 72.05 33.15C71.68 33.16 71.17 33.15 71.14 32.91C71.10 32.68 71.58 32.14 71.83 31.76C72.08 31.38 72.38 31.02 72.64 30.63C72.89 30.25 73.11 29.84 73.35 29.45C73.59 29.06 73.84 28.68 74.09 28.29C74.33 27.90 74.59 27.52 74.82 27.12C75.04 26.72 75.23 26.29 75.44 25.88C75.65 25.48 75.87 25.08 76.08 24.68C76.29 24.27 76.51 23.86 76.69 23.44C76.87 23.02 76.99 22.57 77.17 22.15C77.35 21.73 77.62 21.34 77.77 20.90C77.92 20.47 77.99 20.00 78.07 19.55C78.15 19.10 78.21 18.64 78.26 18.18C78.31 17.72 78.36 17.26 78.36 16.80C78.36 16.34 78.30 15.88 78.25 15.42C78.20 14.96 78.16 14.49 78.06 14.05C77.96 13.60 77.84 13.15 77.66 12.73C77.48 12.31 77.27 11.89 77.00 11.53C76.73 11.17 76.38 10.83 76.03 10.58C75.67 10.33 75.29 10.14 74.87 10.01C74.46 9.88 73.96 9.76 73.52 9.80Z M71.94 33.94C72.18 33.87 72.68 33.99 72.78 34.16C72.88 34.33 72.68 34.72 72.53 34.96C72.37 35.19 72.09 35.41 71.83 35.58C71.58 35.76 71.28 35.94 71.00 35.99C70.72 36.05 70.23 36.06 70.15 35.91C70.06 35.76 70.29 35.30 70.49 35.09C70.68 34.87 71.06 34.81 71.30 34.62C71.54 34.43 71.69 34.02 71.94 33.94Z M74.26 10.70C74.68 10.66 75.25 10.84 75.56 11.12C75.87 11.40 75.93 11.94 76.11 12.36C76.29 12.78 76.52 13.20 76.64 13.64C76.76 14.08 76.78 14.56 76.83 15.02C76.87 15.48 76.90 15.94 76.92 16.40C76.94 16.86 76.98 17.33 76.96 17.79C76.94 18.25 76.89 18.71 76.79 19.16C76.69 19.61 76.52 20.05 76.37 20.49C76.23 20.93 76.09 21.37 75.92 21.80C75.75 22.23 75.54 22.64 75.36 23.06C75.17 23.49 75.03 23.93 74.83 24.34C74.62 24.75 74.34 25.12 74.12 25.53C73.90 25.93 73.73 26.36 73.51 26.77C73.29 27.18 73.06 27.57 72.82 27.97C72.57 28.36 72.30 28.74 72.06 29.13C71.81 29.51 71.58 29.91 71.34 30.30C71.10 30.70 70.86 31.09 70.62 31.48C70.39 31.88 70.24 32.45 69.95 32.68C69.67 32.91 69.09 33.07 68.91 32.88C68.74 32.68 68.87 31.97 68.88 31.51C68.88 31.05 68.94 30.59 68.97 30.13C68.99 29.66 69.00 29.20 69.02 28.74C69.04 28.28 69.06 27.82 69.10 27.35C69.13 26.89 69.18 26.43 69.23 25.97C69.29 25.51 69.36 25.06 69.43 24.60C69.49 24.14 69.57 23.68 69.63 23.22C69.69 22.76 69.74 22.30 69.79 21.84C69.85 21.38 69.88 20.92 69.94 20.46C70.00 20.00 70.07 19.54 70.16 19.09C70.26 18.64 70.39 18.19 70.51 17.75C70.62 17.30 70.74 16.85 70.85 16.40C70.95 15.95 71.01 15.48 71.16 15.04C71.31 14.61 71.55 14.20 71.73 13.78C71.91 13.35 72.03 12.90 72.25 12.50C72.47 12.09 72.72 11.66 73.06 11.36C73.39 11.07 73.85 10.74 74.26 10.70Z M10.94 0.04C10.72 0.23 10.84 0.96 10.85 1.42C10.86 1.88 10.96 2.34 11.01 2.80C11.06 3.26 11.12 3.72 11.15 4.19C11.19 4.65 11.20 5.11 11.22 5.57C11.25 6.04 11.29 6.50 11.31 6.96C11.32 7.42 11.31 7.89 11.31 8.35C11.32 8.82 11.32 9.28 11.31 9.74C11.31 10.21 11.28 10.67 11.27 11.13C11.27 11.60 11.27 12.06 11.27 12.53C11.27 12.99 11.27 13.46 11.27 13.92C11.27 14.38 11.27 14.85 11.27 15.31C11.27 15.78 11.28 16.24 11.27 16.70C11.26 17.17 11.24 17.63 11.22 18.09C11.21 18.56 11.18 19.02 11.17 19.48C11.17 19.95 11.18 20.41 11.17 20.88C11.17 21.34 11.14 21.80 11.13 22.26C11.11 22.73 11.09 23.19 11.08 23.65C11.07 24.12 11.09 24.58 11.08 25.05C11.07 25.51 11.04 25.97 11.03 26.44C11.03 26.90 11.04 27.36 11.03 27.83C11.02 28.29 11.01 28.75 10.99 29.22C10.97 29.68 10.95 30.14 10.93 30.61C10.90 31.07 10.88 31.53 10.85 31.99C10.82 32.46 10.79 32.92 10.76 33.38C10.73 33.84 10.70 34.30 10.66 34.77C10.63 35.23 10.60 35.69 10.57 36.15C10.53 36.61 10.50 37.08 10.46 37.54C10.42 38.00 10.38 38.46 10.33 38.92C10.28 39.38 10.20 39.84 10.15 40.30C10.10 40.76 10.07 41.23 10.02 41.69C9.96 42.15 9.90 42.61 9.82 43.06C9.73 43.52 9.66 43.98 9.52 44.42C9.39 44.86 9.31 45.41 9.02 45.71C8.72 46.01 8.20 46.09 7.76 46.22C7.32 46.36 6.86 46.44 6.40 46.53C5.95 46.62 5.49 46.69 5.03 46.76C4.57 46.84 4.09 46.83 3.65 46.97C3.22 47.10 2.84 47.37 2.43 47.57C2.01 47.77 1.57 47.93 1.18 48.18C0.80 48.42 0.33 48.66 0.14 49.02C-0.06 49.38 -0.08 49.95 0.00 50.34C0.08 50.73 0.35 51.06 0.64 51.37C0.93 51.68 1.36 51.96 1.74 52.20C2.13 52.45 2.54 52.71 2.97 52.84C3.40 52.97 3.89 52.98 4.35 52.99C4.81 52.99 5.30 53.00 5.73 52.88C6.17 52.76 6.57 52.49 6.97 52.26C7.36 52.03 7.77 51.79 8.11 51.49C8.45 51.19 8.75 50.82 9.03 50.45C9.31 50.09 9.57 49.69 9.79 49.29C10.02 48.89 10.08 48.35 10.39 48.06C10.70 47.76 11.21 47.59 11.65 47.50C12.10 47.40 12.58 47.51 13.05 47.49C13.51 47.48 13.97 47.44 14.43 47.42C14.90 47.39 15.36 47.37 15.82 47.35C16.29 47.33 16.75 47.32 17.21 47.31C17.68 47.29 18.14 47.27 18.60 47.26C19.07 47.25 19.53 47.27 19.99 47.26C20.46 47.25 20.92 47.22 21.38 47.21C21.85 47.20 22.31 47.20 22.78 47.21C23.24 47.22 23.70 47.25 24.17 47.26C24.63 47.27 25.09 47.25 25.56 47.26C26.02 47.26 26.48 47.27 26.95 47.28C27.41 47.30 27.87 47.32 28.34 47.34C28.80 47.36 29.26 47.38 29.73 47.41C30.19 47.43 30.65 47.46 31.11 47.49C31.57 47.53 32.03 47.57 32.50 47.62C32.96 47.67 33.42 47.72 33.88 47.77C34.34 47.82 34.80 47.86 35.26 47.89C35.73 47.93 36.19 47.94 36.65 47.96C37.11 47.98 37.67 48.12 38.04 48.00C38.42 47.89 38.96 47.48 38.90 47.27C38.84 47.06 38.11 46.85 37.68 46.75C37.24 46.64 36.75 46.69 36.29 46.65C35.83 46.60 35.37 46.55 34.91 46.49C34.45 46.42 33.99 46.34 33.54 46.28C33.08 46.22 32.61 46.17 32.15 46.13C31.69 46.09 31.23 46.07 30.77 46.05C30.30 46.03 29.84 46.02 29.38 46.00C28.91 45.99 28.45 45.97 27.99 45.96C27.52 45.94 27.06 45.92 26.60 45.91C26.13 45.89 25.67 45.87 25.21 45.86C24.74 45.85 24.28 45.87 23.82 45.86C23.35 45.85 22.89 45.82 22.43 45.82C21.96 45.81 21.50 45.82 21.03 45.82C20.57 45.81 20.11 45.77 19.64 45.77C19.18 45.77 18.72 45.80 18.25 45.82C17.79 45.83 17.33 45.83 16.86 45.84C16.40 45.85 15.94 45.85 15.47 45.86C15.01 45.87 14.55 45.89 14.08 45.91C13.62 45.92 13.15 45.97 12.69 45.95C12.24 45.93 11.57 46.02 11.34 45.78C11.10 45.54 11.23 44.95 11.28 44.51C11.33 44.08 11.51 43.62 11.61 43.17C11.71 42.71 11.80 42.26 11.87 41.80C11.94 41.34 11.98 40.88 12.02 40.42C12.07 39.96 12.11 39.49 12.16 39.03C12.21 38.57 12.27 38.11 12.33 37.65C12.39 37.19 12.47 36.73 12.52 36.27C12.57 35.81 12.59 35.35 12.62 34.89C12.65 34.42 12.69 33.96 12.71 33.50C12.74 33.04 12.74 32.57 12.77 32.11C12.79 31.65 12.83 31.19 12.85 30.72C12.87 30.26 12.88 29.80 12.89 29.33C12.89 28.87 12.89 28.41 12.90 27.94C12.91 27.48 12.93 27.02 12.94 26.55C12.96 26.09 12.98 25.63 12.99 25.16C13.00 24.70 13.00 24.24 13.01 23.77C13.01 23.31 13.02 22.85 13.04 22.38C13.05 21.92 13.07 21.46 13.08 20.99C13.10 20.53 13.12 20.07 13.13 19.60C13.14 19.14 13.16 18.68 13.16 18.21C13.17 17.75 13.17 17.29 13.18 16.82C13.18 16.36 13.17 15.89 13.18 15.43C13.18 14.97 13.18 14.50 13.19 14.04C13.20 13.57 13.22 13.11 13.22 12.65C13.23 12.18 13.22 11.72 13.22 11.25C13.22 10.79 13.22 10.33 13.22 9.86C13.22 9.40 13.23 8.93 13.22 8.47C13.22 8.01 13.19 7.54 13.18 7.08C13.16 6.62 13.15 6.15 13.13 5.69C13.11 5.23 13.07 4.77 13.03 4.30C12.99 3.84 12.96 3.38 12.89 2.92C12.83 2.46 12.76 2.00 12.63 1.56C12.51 1.12 12.41 0.53 12.12 0.27C11.84 0.02 11.15 -0.15 10.94 0.04Z M6.98 47.80C7.40 47.85 8.00 47.98 8.13 48.28C8.27 48.57 7.99 49.17 7.80 49.57C7.60 49.96 7.28 50.35 6.95 50.65C6.61 50.94 6.20 51.20 5.78 51.35C5.36 51.51 4.89 51.61 4.45 51.59C4.01 51.57 3.55 51.42 3.14 51.24C2.72 51.07 2.19 50.86 1.97 50.54C1.76 50.22 1.68 49.64 1.84 49.30C2.00 48.96 2.55 48.69 2.95 48.49C3.35 48.29 3.81 48.20 4.25 48.11C4.70 48.02 5.17 48.01 5.62 47.96C6.07 47.91 6.57 47.75 6.98 47.80Z"/>
</svg>
